<svg width="1477" height="333" viewBox="0 0 1477 333" fill="none" xmlns="http://www.w3.org/2000/svg">
<path d="M38.2759 197H1477V259H0L38.2759 197Z" fill="#8C498D"/>
<path d="M794 197H869L856.5 209H782L794 197Z" fill="#733474"/>
<rect y="259" width="1477" height="74" fill="#A662A7"/>
<path d="M853 205H793V101H853V205Z" fill="#A662A7"/>
<rect x="835" y="113" width="6" height="76" fill="#8C498D"/>
<path d="M860 198L853 205L853 99L860 92L860 198Z" fill="#8C498D"/>
<g filter="url(#filter0_d_5424_493953)">
<rect x="680" y="15" width="287" height="86.0001" fill="#8C498D" shape-rendering="crispEdges"/>
<rect x="683" y="18" width="281" height="80.0001" stroke="#FDBBFF" stroke-width="6" shape-rendering="crispEdges"/>
<path d="M907.932 31.2144H910.61V33.8929H907.932V31.2144ZM910.61 31.2144H913.289V33.8929H910.61V31.2144ZM910.61 33.8929H913.289V36.5715H910.61V33.8929ZM910.61 36.5715H913.289V39.2501H910.61V36.5715ZM910.61 39.2501H913.289V41.9286H910.61V39.2501ZM907.932 36.5715H910.61V39.2501H907.932V36.5715ZM907.932 33.8929H910.61V36.5715H907.932V33.8929ZM907.932 39.2501H910.61V41.9286H907.932V39.2501ZM907.932 41.9286H910.61V44.6072H907.932V41.9286ZM907.932 47.2858H910.61V49.9644H907.932V47.2858ZM907.932 44.6072H910.61V47.2858H907.932V44.6072ZM910.61 41.9286H913.289V44.6072H910.61V41.9286ZM910.61 44.6072H913.289V47.2858H910.61V44.6072ZM910.61 47.2858H913.289V49.9644H910.61V47.2858ZM910.61 49.9644H913.289V52.6429H910.61V49.9644ZM907.932 49.9644H910.61V52.6429H907.932V49.9644ZM907.932 55.3215H910.61V58.0001H907.932V55.3215ZM910.61 55.3215H913.289V58.0001H910.61V55.3215ZM910.61 52.6429H913.289V55.3215H910.61V52.6429ZM907.932 52.6429H910.61V55.3215H907.932V52.6429ZM924.003 55.3215H926.682V58.0001H924.003V55.3215ZM924.003 52.6429H926.682V55.3215H924.003V52.6429ZM924.003 49.9644H926.682V52.6429H924.003V49.9644ZM924.003 47.2858H926.682V49.9644H924.003V47.2858ZM924.003 44.6072H926.682V47.2858H924.003V44.6072ZM924.003 41.9286H926.682V44.6072H924.003V41.9286ZM924.003 31.2144H926.682V33.8929H924.003V31.2144ZM921.324 31.2144H924.003V33.8929H921.324V31.2144ZM921.324 33.8929H924.003V36.5715H921.324V33.8929ZM921.324 36.5715H924.003V39.2501H921.324V36.5715ZM921.324 39.2501H924.003V41.9286H921.324V39.2501ZM924.003 39.2501H926.682V41.9286H924.003V39.2501ZM924.003 36.5715H926.682V39.2501H924.003V36.5715ZM924.003 33.8929H926.682V36.5715H924.003V33.8929ZM921.324 41.9286H924.003V44.6072H921.324V41.9286ZM921.324 52.6429H924.003V55.3215H921.324V52.6429ZM921.324 49.9644H924.003V52.6429H921.324V49.9644ZM921.324 47.2858H924.003V49.9644H921.324V47.2858ZM921.324 44.6072H924.003V47.2858H921.324V44.6072ZM921.324 55.3215H924.003V58.0001H921.324V55.3215ZM918.646 41.9286H921.324V44.6072H918.646V41.9286ZM915.967 41.9286H918.646V44.6072H915.967V41.9286ZM913.289 41.9286H915.967V44.6072H913.289V41.9286ZM913.289 44.6072H915.967V47.2858H913.289V44.6072ZM915.967 44.6072H918.646V47.2858H915.967V44.6072ZM918.646 44.6072H921.324V47.2858H918.646V44.6072Z" fill="#4C174D"/>
<path d="M900.068 36.5715H902.746V39.2501H900.068V36.5715ZM897.389 36.5715H900.068V39.2501H897.389V36.5715ZM897.389 33.8929H900.068V36.5715H897.389V33.8929ZM900.068 33.8929H902.746V36.5715H900.068V33.8929ZM897.389 31.2144H900.068V33.8929H897.389V31.2144ZM894.71 31.2144H897.389V33.8929H894.71V31.2144ZM894.71 33.8929H897.389V36.5715H894.71V33.8929ZM892.032 33.8929H894.71V36.5715H892.032V33.8929ZM889.353 33.8929H892.032V36.5715H889.353V33.8929ZM889.353 31.2144H892.032V33.8929H889.353V31.2144ZM886.675 31.2144H889.353V33.8929H886.675V31.2144ZM892.032 31.2144H894.71V33.8929H892.032V31.2144ZM886.675 33.8929H889.353V36.5715H886.675V33.8929ZM883.996 33.8929H886.675V36.5715H883.996V33.8929ZM883.996 36.5715H886.675V39.2501H883.996V36.5715ZM886.675 36.5715H889.353V39.2501H886.675V36.5715ZM886.675 39.2501H889.353V41.9286H886.675V39.2501ZM886.675 41.9286H889.353V44.6072H886.675V41.9286ZM883.996 41.9286H886.675V44.6072H883.996V41.9286ZM883.996 39.2501H886.675V41.9286H883.996V39.2501ZM886.675 44.6072H889.353V47.2858H886.675V44.6072ZM889.353 44.6072H892.032V47.2858H889.353V44.6072ZM889.353 41.9286H892.032V44.6072H889.353V41.9286ZM892.032 41.9286H894.71V44.6072H892.032V41.9286ZM894.71 41.9286H897.389V44.6072H894.71V41.9286ZM897.389 41.9286H900.068V44.6072H897.389V41.9286ZM897.389 44.6072H900.068V47.2858H897.389V44.6072ZM894.71 44.6072H897.389V47.2858H894.71V44.6072ZM892.032 44.6072H894.71V47.2858H892.032V44.6072ZM900.068 44.6072H902.746V47.2858H900.068V44.6072ZM900.068 47.2858H902.746V49.9644H900.068V47.2858ZM897.389 47.2858H900.068V49.9644H897.389V47.2858ZM894.71 52.6429H897.389V55.3215H894.71V52.6429ZM897.389 52.6429H900.068V55.3215H897.389V52.6429ZM897.389 49.9644H900.068V52.6429H897.389V49.9644ZM900.068 49.9644H902.746V52.6429H900.068V49.9644ZM900.068 52.6429H902.746V55.3215H900.068V52.6429ZM897.389 55.3215H900.068V58.0001H897.389V55.3215ZM894.71 55.3215H897.389V58.0001H894.71V55.3215ZM892.032 55.3215H894.71V58.0001H892.032V55.3215ZM889.353 55.3215H892.032V58.0001H889.353V55.3215ZM886.675 55.3215H889.353V58.0001H886.675V55.3215ZM886.675 52.6429H889.353V55.3215H886.675V52.6429ZM889.353 52.6429H892.032V55.3215H889.353V52.6429ZM892.032 52.6429H894.71V55.3215H892.032V52.6429ZM883.996 52.6429H886.675V55.3215H883.996V52.6429ZM883.996 49.9644H886.675V52.6429H883.996V49.9644ZM886.675 49.9644H889.353V52.6429H886.675V49.9644Z" fill="#4C174D"/>
<path d="M862.739 33.8929H865.418V36.5715H862.739V33.8929ZM873.453 33.8929H876.132V36.5715H873.453V33.8929ZM873.453 36.5715H876.132V39.2501H873.453V36.5715ZM876.132 33.8929H878.811V36.5715H876.132V33.8929ZM876.132 36.5715H878.811V39.2501H876.132V36.5715ZM876.132 39.2501H878.811V41.9286H876.132V39.2501ZM876.132 41.9286H878.811V44.6072H876.132V41.9286ZM876.132 44.6072H878.811V47.2858H876.132V44.6072ZM876.132 47.2858H878.811V49.9644H876.132V47.2858ZM876.132 49.9644H878.811V52.6429H876.132V49.9644ZM876.132 52.6429H878.811V55.3215H876.132V52.6429ZM873.453 52.6429H876.132V55.3215H873.453V52.6429ZM873.453 49.9644H876.132V52.6429H873.453V49.9644ZM873.453 47.2858H876.132V49.9644H873.453V47.2858ZM873.453 44.6072H876.132V47.2858H873.453V44.6072ZM873.453 41.9286H876.132V44.6072H873.453V41.9286ZM873.453 39.2501H876.132V41.9286H873.453V39.2501ZM870.775 49.9644H873.453V52.6429H870.775V49.9644ZM870.775 52.6429H873.453V55.3215H870.775V52.6429ZM873.453 55.3215H876.132V58.0001H873.453V55.3215ZM870.775 55.3215H873.453V58.0001H870.775V55.3215ZM868.096 55.3215H870.775V58.0001H868.096V55.3215ZM868.096 52.6429H870.775V55.3215H868.096V52.6429ZM865.418 55.3215H868.096V58.0001H865.418V55.3215ZM862.739 55.3215H865.418V58.0001H862.739V55.3215ZM862.739 52.6429H865.418V55.3215H862.739V52.6429ZM865.418 52.6429H868.096V55.3215H865.418V52.6429ZM865.418 49.9644H868.096V52.6429H865.418V49.9644ZM862.739 49.9644H865.418V52.6429H862.739V49.9644ZM860.061 52.6429H862.739V55.3215H860.061V52.6429ZM860.061 49.9644H862.739V52.6429H860.061V49.9644ZM860.061 47.2858H862.739V49.9644H860.061V47.2858ZM860.061 44.6072H862.739V47.2858H860.061V44.6072ZM860.061 41.9286H862.739V44.6072H860.061V41.9286ZM860.061 39.2501H862.739V41.9286H860.061V39.2501ZM860.061 36.5715H862.739V39.2501H860.061V36.5715ZM862.739 36.5715H865.418V39.2501H862.739V36.5715ZM860.061 33.8929H862.739V36.5715H860.061V33.8929ZM862.739 39.2501H865.418V41.9286H862.739V39.2501ZM862.739 41.9286H865.418V44.6072H862.739V41.9286ZM862.739 44.6072H865.418V47.2858H862.739V44.6072ZM862.739 47.2858H865.418V49.9644H862.739V47.2858ZM860.061 31.2144H862.739V33.8929H860.061V31.2144ZM862.739 31.2144H865.418V33.8929H862.739V31.2144ZM873.453 31.2144H876.132V33.8929H873.453V31.2144ZM876.132 31.2144H878.811V33.8929H876.132V31.2144Z" fill="#4C174D"/>
<path d="M838.804 44.6072H841.482V47.2858H838.804V44.6072ZM841.482 44.6072H844.161V47.2858H841.482V44.6072ZM844.161 44.6072H846.839V47.2858H844.161V44.6072ZM846.839 44.6072H849.518V47.2858H846.839V44.6072ZM841.482 47.2858H844.161V49.9644H841.482V47.2858ZM838.804 47.2858H841.482V49.9644H838.804V47.2858ZM844.161 47.2858H846.839V49.9644H844.161V47.2858ZM846.839 47.2858H849.518V49.9644H846.839V47.2858ZM849.518 49.9644H852.196V52.6429H849.518V49.9644ZM852.196 47.2858H854.875V49.9644H852.196V47.2858ZM849.518 47.2858H852.196V49.9644H849.518V47.2858ZM852.196 49.9644H854.875V52.6429H852.196V49.9644ZM849.518 52.6429H852.196V55.3215H849.518V52.6429ZM852.196 52.6429H854.875V55.3215H852.196V52.6429ZM852.196 55.3215H854.875V58.0001H852.196V55.3215ZM849.518 55.3215H852.196V58.0001H849.518V55.3215ZM838.804 55.3215H841.482V58.0001H838.804V55.3215ZM836.125 55.3215H838.804V58.0001H836.125V55.3215ZM836.125 52.6429H838.804V55.3215H836.125V52.6429ZM838.804 52.6429H841.482V55.3215H838.804V52.6429ZM838.804 49.9644H841.482V52.6429H838.804V49.9644ZM836.125 49.9644H838.804V52.6429H836.125V49.9644ZM836.125 47.2858H838.804V49.9644H836.125V47.2858ZM836.125 44.6072H838.804V47.2858H836.125V44.6072ZM836.125 41.9286H838.804V44.6072H836.125V41.9286ZM838.804 41.9286H841.482V44.6072H838.804V41.9286ZM836.125 31.2144H838.804V33.8929H836.125V31.2144ZM838.804 31.2144H841.482V33.8929H838.804V31.2144ZM841.482 31.2144H844.161V33.8929H841.482V31.2144ZM844.161 31.2144H846.839V33.8929H844.161V31.2144ZM846.839 31.2144H849.518V33.8929H846.839V31.2144ZM849.518 31.2144H852.196V33.8929H849.518V31.2144ZM849.518 33.8929H852.196V36.5715H849.518V33.8929ZM846.839 33.8929H849.518V36.5715H846.839V33.8929ZM844.161 33.8929H846.839V36.5715H844.161V33.8929ZM841.482 33.8929H844.161V36.5715H841.482V33.8929ZM838.804 33.8929H841.482V36.5715H838.804V33.8929ZM836.125 33.8929H838.804V36.5715H836.125V33.8929ZM836.125 36.5715H838.804V39.2501H836.125V36.5715ZM836.125 39.2501H838.804V41.9286H836.125V39.2501ZM838.804 39.2501H841.482V41.9286H838.804V39.2501ZM838.804 36.5715H841.482V39.2501H838.804V36.5715ZM849.518 36.5715H852.196V39.2501H849.518V36.5715ZM852.196 36.5715H854.875V39.2501H852.196V36.5715ZM852.196 33.8929H854.875V36.5715H852.196V33.8929ZM852.196 39.2501H854.875V41.9286H852.196V39.2501ZM849.518 39.2501H852.196V41.9286H849.518V39.2501ZM849.518 41.9286H852.196V44.6072H849.518V41.9286ZM852.196 41.9286H854.875V44.6072H852.196V41.9286ZM849.518 44.6072H852.196V47.2858H849.518V44.6072Z" fill="#4C174D"/>
<path d="M805.925 31.2144H808.889V33.8929H805.925V31.2144ZM802.96 31.2144H805.925V33.8929H802.96V31.2144ZM802.96 33.8929H805.925V36.5715H802.96V33.8929ZM805.925 33.8929H808.889V36.5715H805.925V33.8929ZM808.889 33.8929H811.853V36.5715H808.889V33.8929ZM808.889 31.2144H811.853V33.8929H808.889V31.2144ZM811.853 31.2144H814.818V33.8929H811.853V31.2144ZM814.818 31.2144H817.782V33.8929H814.818V31.2144ZM814.818 33.8929H817.782V36.5715H814.818V33.8929ZM811.853 33.8929H814.818V36.5715H811.853V33.8929ZM811.853 36.5715H814.818V39.2501H811.853V36.5715ZM814.818 36.5715H817.782V39.2501H814.818V36.5715ZM817.782 33.8929H820.746V36.5715H817.782V33.8929ZM817.782 36.5715H820.746V39.2501H817.782V36.5715ZM817.782 39.2501H820.746V41.9286H817.782V39.2501ZM817.782 41.9286H820.746V44.6072H817.782V41.9286ZM817.782 44.6072H820.746V47.2858H817.782V44.6072ZM817.782 47.2858H820.746V49.9644H817.782V47.2858ZM817.782 49.9644H820.746V52.6429H817.782V49.9644ZM817.782 52.6429H820.746V55.3215H817.782V52.6429ZM814.818 52.6429H817.782V55.3215H814.818V52.6429ZM814.818 49.9644H817.782V52.6429H814.818V49.9644ZM814.818 47.2858H817.782V49.9644H814.818V47.2858ZM814.818 44.6072H817.782V47.2858H814.818V44.6072ZM814.818 41.9286H817.782V44.6072H814.818V41.9286ZM814.818 39.2501H817.782V41.9286H814.818V39.2501ZM811.853 49.9644H814.818V52.6429H811.853V49.9644ZM811.853 52.6429H814.818V55.3215H811.853V52.6429ZM814.818 55.3215H817.782V58.0001H814.818V55.3215ZM811.853 55.3215H814.818V58.0001H811.853V55.3215ZM808.889 55.3215H811.853V58.0001H808.889V55.3215ZM808.889 52.6429H811.853V55.3215H808.889V52.6429ZM805.925 55.3215H808.889V58.0001H805.925V55.3215ZM802.96 55.3215H805.925V58.0001H802.96V55.3215ZM802.96 52.6429H805.925V55.3215H802.96V52.6429ZM805.925 52.6429H808.889V55.3215H805.925V52.6429ZM802.96 49.9644H805.925V52.6429H802.96V49.9644ZM799.996 52.6429H802.96V55.3215H799.996V52.6429ZM799.996 49.9644H802.96V52.6429H799.996V49.9644ZM799.996 47.2858H802.96V49.9644H799.996V47.2858ZM799.996 44.6072H802.96V47.2858H799.996V44.6072ZM799.996 41.9286H802.96V44.6072H799.996V41.9286ZM799.996 39.2501H802.96V41.9286H799.996V39.2501ZM799.996 36.5715H802.96V39.2501H799.996V36.5715ZM802.96 36.5715H805.925V39.2501H802.96V36.5715ZM799.996 33.8929H802.96V36.5715H799.996V33.8929ZM802.96 39.2501H805.925V41.9286H802.96V39.2501ZM802.96 41.9286H805.925V44.6072H802.96V41.9286ZM802.96 44.6072H805.925V47.2858H802.96V44.6072ZM802.96 47.2858H805.925V49.9644H802.96V47.2858ZM799.996 55.3215H802.96V58.0001H799.996V55.3215ZM799.996 31.2144H802.96V33.8929H799.996V31.2144Z" fill="#4C174D"/>
<path d="M790.439 55.3215H793.618V58.0001H790.439V55.3215ZM793.618 55.3215H796.797V58.0001H793.618V55.3215ZM793.618 52.6429H796.797V55.3215H793.618V52.6429ZM793.618 49.9644H796.797V52.6429H793.618V49.9644ZM793.618 47.2858H796.797V49.9644H793.618V47.2858ZM793.618 44.6072H796.797V47.2858H793.618V44.6072ZM793.618 41.9286H796.797V44.6072H793.618V41.9286ZM790.439 41.9286H793.618V44.6072H790.439V41.9286ZM790.439 44.6072H793.618V47.2858H790.439V44.6072ZM790.439 47.2858H793.618V49.9644H790.439V47.2858ZM790.439 49.9644H793.618V52.6429H790.439V49.9644ZM790.439 52.6429H793.618V55.3215H790.439V52.6429ZM790.439 39.2501H793.618V41.9286H790.439V39.2501ZM793.618 39.2501H796.797V41.9286H793.618V39.2501ZM793.618 36.5715H796.797V39.2501H793.618V36.5715ZM793.618 33.8929H796.797V36.5715H793.618V33.8929ZM793.618 31.2144H796.797V33.8929H793.618V31.2144ZM790.439 31.2144H793.618V33.8929H790.439V31.2144ZM790.439 33.8929H793.618V36.5715H790.439V33.8929ZM790.439 36.5715H793.618V39.2501H790.439V36.5715Z" fill="#4C174D"/>
<path d="M775.54 55.3215H778.218V58.0001H775.54V55.3215ZM775.54 52.6429H778.218V55.3215H775.54V52.6429ZM775.54 49.9644H778.218V52.6429H775.54V49.9644ZM772.861 52.6429H775.54V55.3215H772.861V52.6429ZM772.861 49.9644H775.54V52.6429H772.861V49.9644ZM772.861 47.2858H775.54V49.9644H772.861V47.2858ZM770.182 49.9644H772.861V52.6429H770.182V49.9644ZM770.182 47.2858H772.861V49.9644H770.182V47.2858ZM778.218 49.9644H780.897V52.6429H778.218V49.9644ZM778.218 52.6429H780.897V55.3215H778.218V52.6429ZM778.218 47.2858H780.897V49.9644H778.218V47.2858ZM780.897 47.2858H783.575V49.9644H780.897V47.2858ZM780.897 49.9644H783.575V52.6429H780.897V49.9644ZM783.575 47.2858H786.254V49.9644H783.575V47.2858ZM767.504 47.2858H770.182V49.9644H767.504V47.2858ZM780.897 31.2144H783.575V33.8929H780.897V31.2144ZM783.575 31.2144H786.254V33.8929H783.575V31.2144ZM783.575 33.8929H786.254V36.5715H783.575V33.8929ZM783.575 36.5715H786.254V39.2501H783.575V36.5715ZM783.575 39.2501H786.254V41.9286H783.575V39.2501ZM783.575 41.9286H786.254V44.6072H783.575V41.9286ZM780.897 41.9286H783.575V44.6072H780.897V41.9286ZM780.897 44.6072H783.575V47.2858H780.897V44.6072ZM780.897 39.2501H783.575V41.9286H780.897V39.2501ZM780.897 36.5715H783.575V39.2501H780.897V36.5715ZM780.897 33.8929H783.575V36.5715H780.897V33.8929ZM783.575 44.6072H786.254V47.2858H783.575V44.6072ZM770.182 44.6072H772.861V47.2858H770.182V44.6072ZM767.504 44.6072H770.182V47.2858H767.504V44.6072ZM767.504 41.9286H770.182V44.6072H767.504V41.9286ZM770.182 41.9286H772.861V44.6072H770.182V41.9286ZM770.182 39.2501H772.861V41.9286H770.182V39.2501ZM767.504 39.2501H770.182V41.9286H767.504V39.2501ZM767.504 36.5715H770.182V39.2501H767.504V36.5715ZM770.182 36.5715H772.861V39.2501H770.182V36.5715ZM767.504 31.2144H770.182V33.8929H767.504V31.2144ZM770.182 31.2144H772.861V33.8929H770.182V31.2144ZM770.182 33.8929H772.861V36.5715H770.182V33.8929ZM767.504 33.8929H770.182V36.5715H767.504V33.8929Z" fill="#4C174D"/>
<path d="M724.99 31.2144H727.669V33.8929H724.99V31.2144ZM722.311 31.2144H724.99V33.8929H722.311V31.2144ZM722.311 33.8929H724.99V36.5715H722.311V33.8929ZM724.99 33.8929H727.669V36.5715H724.99V33.8929ZM727.669 33.8929H730.347V36.5715H727.669V33.8929ZM727.669 31.2144H730.347V33.8929H727.669V31.2144ZM730.347 31.2144H733.026V33.8929H730.347V31.2144ZM733.026 31.2144H735.704V33.8929H733.026V31.2144ZM733.026 33.8929H735.704V36.5715H733.026V33.8929ZM730.347 33.8929H733.026V36.5715H730.347V33.8929ZM733.026 36.5715H735.704V39.2501H733.026V36.5715ZM735.704 33.8929H738.383V36.5715H735.704V33.8929ZM735.704 36.5715H738.383V39.2501H735.704V36.5715ZM735.704 49.9644H738.383V52.6429H735.704V49.9644ZM735.704 52.6429H738.383V55.3215H735.704V52.6429ZM733.026 52.6429H735.704V55.3215H733.026V52.6429ZM733.026 49.9644H735.704V52.6429H733.026V49.9644ZM730.347 52.6429H733.026V55.3215H730.347V52.6429ZM733.026 55.3215H735.704V58.0001H733.026V55.3215ZM730.347 55.3215H733.026V58.0001H730.347V55.3215ZM727.669 55.3215H730.347V58.0001H727.669V55.3215ZM727.669 52.6429H730.347V55.3215H727.669V52.6429ZM724.99 55.3215H727.669V58.0001H724.99V55.3215ZM722.311 55.3215H724.99V58.0001H722.311V55.3215ZM722.311 52.6429H724.99V55.3215H722.311V52.6429ZM724.99 52.6429H727.669V55.3215H724.99V52.6429ZM724.99 49.9644H727.669V52.6429H724.99V49.9644ZM722.311 49.9644H724.99V52.6429H722.311V49.9644ZM719.633 52.6429H722.311V55.3215H719.633V52.6429ZM719.633 49.9644H722.311V52.6429H719.633V49.9644ZM719.633 47.2858H722.311V49.9644H719.633V47.2858ZM719.633 44.6072H722.311V47.2858H719.633V44.6072ZM719.633 41.9286H722.311V44.6072H719.633V41.9286ZM719.633 39.2501H722.311V41.9286H719.633V39.2501ZM719.633 36.5715H722.311V39.2501H719.633V36.5715ZM722.311 36.5715H724.99V39.2501H722.311V36.5715ZM719.633 33.8929H722.311V36.5715H719.633V33.8929ZM724.99 36.5715H727.669V39.2501H724.99V36.5715ZM722.311 39.2501H724.99V41.9286H722.311V39.2501ZM722.311 41.9286H724.99V44.6072H722.311V41.9286ZM722.311 44.6072H724.99V47.2858H722.311V44.6072ZM722.311 47.2858H724.99V49.9644H722.311V47.2858Z" fill="#4C174D"/>
<path d="M751.5 55H748.5V58H751.5V55Z" fill="#4C174D"/>
<path d="M754.5 55H751.5V58H754.5V55Z" fill="#4C174D"/>
<path d="M757.5 55H754.5V58H757.5V55Z" fill="#4C174D"/>
<path d="M760.5 52H757.5V55H760.5V52Z" fill="#4C174D"/>
<path d="M748.5 52H745.5V55H748.5V52Z" fill="#4C174D"/>
<path d="M745.5 49H742.5V52H745.5V49Z" fill="#4C174D"/>
<path d="M745.5 46H742.5V49H745.5V46Z" fill="#4C174D"/>
<path d="M745.5 43H742.5V46H745.5V43Z" fill="#4C174D"/>
<path d="M745.5 40H742.5V43H745.5V40Z" fill="#4C174D"/>
<path d="M745.5 37H742.5V40H745.5V37Z" fill="#4C174D"/>
<path d="M748.5 34H745.5V37H748.5V34Z" fill="#4C174D"/>
<path d="M751.5 31H748.5V34H751.5V31Z" fill="#4C174D"/>
<path d="M754.5 31H751.5V34H754.5V31Z" fill="#4C174D"/>
<path d="M757.5 31H754.5V34H757.5V31Z" fill="#4C174D"/>
<path d="M763.5 49H760.5V52H763.5V49Z" fill="#4C174D"/>
<path d="M763.5 46H760.5V49H763.5V46Z" fill="#4C174D"/>
<path d="M763.5 43H760.5V46H763.5V43Z" fill="#4C174D"/>
<path d="M763.5 40H760.5V43H763.5V40Z" fill="#4C174D"/>
<path d="M763.5 37H760.5V40H763.5V37Z" fill="#4C174D"/>
<path d="M760.5 34H757.5V37H760.5V34Z" fill="#4C174D"/>
<path d="M748.5 40H745.5V43H748.5V40Z" fill="#4C174D"/>
<path d="M748.5 43H745.5V46H748.5V43Z" fill="#C37DC8"/>
<path d="M748.5 46H745.5V49H748.5V46Z" fill="#C37DC8"/>
<path d="M748.5 49H745.5V52H748.5V49Z" fill="#C37DC8"/>
<path d="M751.5 46H748.5V49H751.5V46Z" fill="#C37DC8"/>
<path d="M754.5 46H751.5V49H754.5V46Z" fill="#C37DC8"/>
<path d="M757.5 46H754.5V49H757.5V46Z" fill="#C37DC8"/>
<path d="M760.5 43H757.5V46H760.5V43Z" fill="#C37DC8"/>
<path d="M751.5 49H748.5V52H751.5V49Z" fill="#C37DC8"/>
<path d="M754.5 49H751.5V52H754.5V49Z" fill="#C37DC8"/>
<path d="M757.5 49H754.5V52H757.5V49Z" fill="#C37DC8"/>
<path d="M760.5 46H757.5V49H760.5V46Z" fill="#C37DC8"/>
<path d="M760.5 49H757.5V52H760.5V49Z" fill="#C37DC8"/>
<path d="M751.5 52H748.5V55H751.5V52Z" fill="#C37DC8"/>
<path d="M754.5 52H751.5V55H754.5V52Z" fill="#C37DC8"/>
<path d="M757.5 52H754.5V55H757.5V52Z" fill="#C37DC8"/>
<path d="M751.5 43H748.5V46H751.5V43Z" fill="#4C174D"/>
<path d="M751.5 40H748.5V43H751.5V40Z" fill="#C37DC8"/>
<path d="M751.5 37H748.5V40H751.5V37Z" fill="#C37DC8"/>
<path d="M748.5 37H745.5V40H748.5V37Z" fill="#C37DC8"/>
<path d="M751.5 34H748.5V37H751.5V34Z" fill="#C37DC8"/>
<path d="M754.5 34H751.5V37H754.5V34Z" fill="#C37DC8"/>
<path d="M757.5 34H754.5V37H757.5V34Z" fill="#C37DC8"/>
<path d="M757.5 37H754.5V40H757.5V37Z" fill="#C37DC8"/>
<path d="M760.5 37H757.5V40H760.5V37Z" fill="#C37DC8"/>
<path d="M754.5 43H751.5V46H754.5V43Z" fill="#4C174D"/>
<path d="M754.5 40H751.5V43H754.5V40Z" fill="#C37DC8"/>
<path d="M754.5 37H751.5V40H754.5V37Z" fill="#4C174D"/>
<path d="M757.5 43H754.5V46H757.5V43Z" fill="#4C174D"/>
<path d="M757.5 40H754.5V43H757.5V40Z" fill="#C37DC8"/>
<path d="M760.5 40H757.5V43H760.5V40Z" fill="#4C174D"/>
<path d="M719.842 79.0357H720.806V80H719.842V79.0357ZM720.806 79.0357H721.77V80H720.806V79.0357ZM720.806 78.0714H721.77V79.0357H720.806V78.0714ZM720.806 77.1071H721.77V78.0714H720.806V77.1071ZM720.806 76.1429H721.77V77.1071H720.806V76.1429ZM720.806 75.1786H721.77V76.1429H720.806V75.1786ZM720.806 74.2143H721.77V75.1786H720.806V74.2143ZM719.842 74.2143H720.806V75.1786H719.842V74.2143ZM719.842 75.1786H720.806V76.1429H719.842V75.1786ZM719.842 76.1429H720.806V77.1071H719.842V76.1429ZM719.842 77.1071H720.806V78.0714H719.842V77.1071ZM719.842 78.0714H720.806V79.0357H719.842V78.0714ZM719.842 73.25H720.806V74.2143H719.842V73.25ZM720.806 73.25H721.77V74.2143H720.806V73.25ZM720.806 72.2857H721.77V73.25H720.806V72.2857ZM720.806 71.3214H721.77V72.2857H720.806V71.3214ZM720.806 70.3571H721.77V71.3214H720.806V70.3571ZM719.842 70.3571H720.806V71.3214H719.842V70.3571ZM719.842 71.3214H720.806V72.2857H719.842V71.3214ZM719.842 72.2857H720.806V73.25H719.842V72.2857ZM722.742 73.25H723.706V74.2143H722.742V73.25ZM722.742 72.2857H723.706V73.25H722.742V72.2857ZM723.706 72.2857H724.671V73.25H723.706V72.2857ZM723.706 73.25H724.671V74.2143H723.706V73.25ZM723.706 74.2143H724.671V75.1786H723.706V74.2143ZM723.706 75.1786H724.671V76.1429H723.706V75.1786ZM723.706 76.1429H724.671V77.1071H723.706V76.1429ZM722.742 76.1429H723.706V77.1071H722.742V76.1429ZM722.742 75.1786H723.706V76.1429H722.742V75.1786ZM722.742 74.2143H723.706V75.1786H722.742V74.2143ZM722.742 77.1071H723.706V78.0714H722.742V77.1071ZM723.706 77.1071H724.671V78.0714H723.706V77.1071ZM723.706 78.0714H724.671V79.0357H723.706V78.0714ZM723.706 79.0357H724.671V80H723.706V79.0357ZM722.742 79.0357H723.706V80H722.742V79.0357ZM722.742 78.0714H723.706V79.0357H722.742V78.0714ZM727.564 79.0357H728.528V80H727.564V79.0357ZM728.528 79.0357H729.492V80H728.528V79.0357ZM728.528 78.0714H729.492V79.0357H728.528V78.0714ZM728.528 77.1071H729.492V78.0714H728.528V77.1071ZM728.528 76.1429H729.492V77.1071H728.528V76.1429ZM728.528 75.1786H729.492V76.1429H728.528V75.1786ZM728.528 74.2143H729.492V75.1786H728.528V74.2143ZM728.528 73.25H729.492V74.2143H728.528V73.25ZM727.564 75.1786H728.528V76.1429H727.564V75.1786ZM727.564 76.1429H728.528V77.1071H727.564V76.1429ZM727.564 77.1071H728.528V78.0714H727.564V77.1071ZM727.564 78.0714H728.528V79.0357H727.564V78.0714ZM727.564 74.2143H728.528V75.1786H727.564V74.2143ZM724.671 73.25H725.635V74.2143H724.671V73.25ZM725.635 73.25H726.599V74.2143H725.635V73.25ZM726.599 73.25H727.564V74.2143H726.599V73.25ZM726.599 72.2857H727.564V73.25H726.599V72.2857ZM727.564 72.2857H728.528V73.25H727.564V72.2857ZM727.564 73.25H728.528V74.2143H727.564V73.25ZM725.635 72.2857H726.599V73.25H725.635V72.2857ZM734.309 73.25H735.273V74.2143H734.309V73.25ZM734.309 72.2857H735.273V73.25H734.309V72.2857ZM735.273 72.2857H736.237V73.25H735.273V72.2857ZM735.273 73.25H736.237V74.2143H735.273V73.25ZM735.273 74.2143H736.237V75.1786H735.273V74.2143ZM735.273 75.1786H736.237V76.1429H735.273V75.1786ZM735.273 76.1429H736.237V77.1071H735.273V76.1429ZM734.309 76.1429H735.273V77.1071H734.309V76.1429ZM734.309 75.1786H735.273V76.1429H734.309V75.1786ZM734.309 74.2143H735.273V75.1786H734.309V74.2143ZM734.309 77.1071H735.273V78.0714H734.309V77.1071ZM735.273 77.1071H736.237V78.0714H735.273V77.1071ZM735.273 78.0714H736.237V79.0357H735.273V78.0714ZM735.273 79.0357H736.237V80H735.273V79.0357ZM734.309 79.0357H735.273V80H734.309V79.0357ZM734.309 78.0714H735.273V79.0357H734.309V78.0714ZM738.166 79.0357H739.13V80H738.166V79.0357ZM739.13 79.0357H740.094V80H739.13V79.0357ZM739.13 78.0714H740.094V79.0357H739.13V78.0714ZM739.13 77.1071H740.094V78.0714H739.13V77.1071ZM739.13 76.1429H740.094V77.1071H739.13V76.1429ZM739.13 75.1786H740.094V76.1429H739.13V75.1786ZM739.13 74.2143H740.094V75.1786H739.13V74.2143ZM739.13 73.25H740.094V74.2143H739.13V73.25ZM738.166 75.1786H739.13V76.1429H738.166V75.1786ZM738.166 76.1429H739.13V77.1071H738.166V76.1429ZM738.166 77.1071H739.13V78.0714H738.166V77.1071ZM738.166 78.0714H739.13V79.0357H738.166V78.0714ZM738.166 74.2143H739.13V75.1786H738.166V74.2143ZM736.237 73.25H737.201V74.2143H736.237V73.25ZM737.201 73.25H738.166V74.2143H737.201V73.25ZM738.166 72.2857H739.13V73.25H738.166V72.2857ZM738.166 73.25H739.13V74.2143H738.166V73.25ZM737.201 72.2857H738.166V73.25H737.201V72.2857ZM742.023 79.0357H742.987V80H742.023V79.0357ZM742.987 79.0357H743.951V80H742.987V79.0357ZM742.987 78.0714H743.951V79.0357H742.987V78.0714ZM742.987 77.1071H743.951V78.0714H742.987V77.1071ZM742.987 76.1429H743.951V77.1071H742.987V76.1429ZM742.987 75.1786H743.951V76.1429H742.987V75.1786ZM742.987 74.2143H743.951V75.1786H742.987V74.2143ZM742.987 73.25H743.951V74.2143H742.987V73.25ZM742.023 75.1786H742.987V76.1429H742.023V75.1786ZM742.023 76.1429H742.987V77.1071H742.023V76.1429ZM742.023 77.1071H742.987V78.0714H742.023V77.1071ZM742.023 78.0714H742.987V79.0357H742.023V78.0714ZM742.023 74.2143H742.987V75.1786H742.023V74.2143ZM740.094 73.25H741.059V74.2143H740.094V73.25ZM741.059 73.25H742.023V74.2143H741.059V73.25ZM742.023 72.2857H742.987V73.25H742.023V72.2857ZM742.023 73.25H742.987V74.2143H742.023V73.25ZM741.059 72.2857H742.023V73.25H741.059V72.2857ZM746.837 72.2857H747.801V73.25H746.837V72.2857ZM745.872 72.2857H746.837V73.25H745.872V72.2857ZM745.872 73.25H746.837V74.2143H745.872V73.25ZM746.837 73.25H747.801V74.2143H746.837V73.25ZM747.801 72.2857H748.765V73.25H747.801V72.2857ZM748.765 72.2857H749.73V73.25H748.765V72.2857ZM749.73 72.2857H750.694V73.25H749.73V72.2857ZM749.73 73.25H750.694V74.2143H749.73V73.25ZM748.765 73.25H749.73V74.2143H748.765V73.25ZM750.694 73.25H751.658V74.2143H750.694V73.25ZM750.694 74.2143H751.658V75.1786H750.694V74.2143ZM750.694 78.0714H751.658V79.0357H750.694V78.0714ZM749.73 78.0714H750.694V79.0357H749.73V78.0714ZM749.73 74.2143H750.694V75.1786H749.73V74.2143ZM748.765 78.0714H749.73V79.0357H748.765V78.0714ZM749.73 79.0357H750.694V80H749.73V79.0357ZM748.765 79.0357H749.73V80H748.765V79.0357ZM747.801 79.0357H748.765V80H747.801V79.0357ZM746.837 79.0357H747.801V80H746.837V79.0357ZM745.872 79.0357H746.837V80H745.872V79.0357ZM745.872 78.0714H746.837V79.0357H745.872V78.0714ZM746.837 78.0714H747.801V79.0357H746.837V78.0714ZM745.872 77.1071H746.837V78.0714H745.872V77.1071ZM744.908 78.0714H745.872V79.0357H744.908V78.0714ZM744.908 77.1071H745.872V78.0714H744.908V77.1071ZM744.908 76.1429H745.872V77.1071H744.908V76.1429ZM744.908 75.1786H745.872V76.1429H744.908V75.1786ZM744.908 74.2143H745.872V75.1786H744.908V74.2143ZM744.908 73.25H745.872V74.2143H744.908V73.25ZM745.872 74.2143H746.837V75.1786H745.872V74.2143ZM745.872 75.1786H746.837V76.1429H745.872V75.1786ZM745.872 76.1429H746.837V77.1071H745.872V76.1429ZM747.801 78.0714H748.765V79.0357H747.801V78.0714ZM747.801 73.25H748.765V74.2143H747.801V73.25ZM749.73 75.1786H750.694V76.1429H749.73V75.1786ZM750.694 75.1786H751.658V76.1429H750.694V75.1786ZM746.837 76.1429H747.801V77.1071H746.837V76.1429ZM747.801 76.1429H748.765V77.1071H747.801V76.1429ZM748.765 76.1429H749.73V77.1071H748.765V76.1429ZM749.73 76.1429H750.694V77.1071H749.73V76.1429ZM750.694 76.1429H751.658V77.1071H750.694V76.1429ZM748.765 75.1786H749.73V76.1429H748.765V75.1786ZM747.801 75.1786H748.765V76.1429H747.801V75.1786ZM746.837 75.1786H747.801V76.1429H746.837V75.1786ZM752.625 73.25H753.589V74.2143H752.625V73.25ZM752.625 72.2857H753.589V73.25H752.625V72.2857ZM753.589 72.2857H754.554V73.25H753.589V72.2857ZM753.589 73.25H754.554V74.2143H753.589V73.25ZM753.589 74.2143H754.554V75.1786H753.589V74.2143ZM753.589 75.1786H754.554V76.1429H753.589V75.1786ZM753.589 76.1429H754.554V77.1071H753.589V76.1429ZM752.625 76.1429H753.589V77.1071H752.625V76.1429ZM752.625 75.1786H753.589V76.1429H752.625V75.1786ZM752.625 74.2143H753.589V75.1786H752.625V74.2143ZM752.625 77.1071H753.589V78.0714H752.625V77.1071ZM753.589 77.1071H754.554V78.0714H753.589V77.1071ZM753.589 78.0714H754.554V79.0357H753.589V78.0714ZM753.589 79.0357H754.554V80H753.589V79.0357ZM752.625 79.0357H753.589V80H752.625V79.0357ZM752.625 78.0714H753.589V79.0357H752.625V78.0714ZM756.482 79.0357H757.446V80H756.482V79.0357ZM757.446 79.0357H758.411V80H757.446V79.0357ZM757.446 78.0714H758.411V79.0357H757.446V78.0714ZM757.446 77.1071H758.411V78.0714H757.446V77.1071ZM757.446 76.1429H758.411V77.1071H757.446V76.1429ZM757.446 75.1786H758.411V76.1429H757.446V75.1786ZM757.446 74.2143H758.411V75.1786H757.446V74.2143ZM757.446 73.25H758.411V74.2143H757.446V73.25ZM756.482 75.1786H757.446V76.1429H756.482V75.1786ZM756.482 76.1429H757.446V77.1071H756.482V76.1429ZM756.482 77.1071H757.446V78.0714H756.482V77.1071ZM756.482 78.0714H757.446V79.0357H756.482V78.0714ZM756.482 74.2143H757.446V75.1786H756.482V74.2143ZM754.554 73.25H755.518V74.2143H754.554V73.25ZM755.518 73.25H756.482V74.2143H755.518V73.25ZM756.482 72.2857H757.446V73.25H756.482V72.2857ZM756.482 73.25H757.446V74.2143H756.482V73.25ZM755.518 72.2857H756.482V73.25H755.518V72.2857ZM760.339 79.0357H761.304V80H760.339V79.0357ZM761.304 79.0357H762.268V80H761.304V79.0357ZM761.304 78.0714H762.268V79.0357H761.304V78.0714ZM761.304 77.1071H762.268V78.0714H761.304V77.1071ZM761.304 76.1429H762.268V77.1071H761.304V76.1429ZM761.304 75.1786H762.268V76.1429H761.304V75.1786ZM761.304 74.2143H762.268V75.1786H761.304V74.2143ZM761.304 73.25H762.268V74.2143H761.304V73.25ZM760.339 75.1786H761.304V76.1429H760.339V75.1786ZM760.339 76.1429H761.304V77.1071H760.339V76.1429ZM760.339 77.1071H761.304V78.0714H760.339V77.1071ZM760.339 78.0714H761.304V79.0357H760.339V78.0714ZM760.339 74.2143H761.304V75.1786H760.339V74.2143ZM758.411 73.25H759.375V74.2143H758.411V73.25ZM759.375 73.25H760.339V74.2143H759.375V73.25ZM760.339 72.2857H761.304V73.25H760.339V72.2857ZM760.339 73.25H761.304V74.2143H760.339V73.25ZM759.375 72.2857H760.339V73.25H759.375V72.2857ZM765.153 72.2857H766.117V73.25H765.153V72.2857ZM764.189 72.2857H765.153V73.25H764.189V72.2857ZM764.189 73.25H765.153V74.2143H764.189V73.25ZM765.153 73.25H766.117V74.2143H765.153V73.25ZM766.117 72.2857H767.082V73.25H766.117V72.2857ZM767.082 72.2857H768.046V73.25H767.082V72.2857ZM768.046 72.2857H769.01V73.25H768.046V72.2857ZM768.046 73.25H769.01V74.2143H768.046V73.25ZM767.082 73.25H768.046V74.2143H767.082V73.25ZM768.046 75.1786H769.01V76.1429H768.046V75.1786ZM769.01 73.25H769.975V74.2143H769.01V73.25ZM769.01 74.2143H769.975V75.1786H769.01V74.2143ZM769.01 75.1786H769.975V76.1429H769.01V75.1786ZM769.01 76.1429H769.975V77.1071H769.01V76.1429ZM769.01 77.1071H769.975V78.0714H769.01V77.1071ZM769.01 78.0714H769.975V79.0357H769.01V78.0714ZM768.046 78.0714H769.01V79.0357H768.046V78.0714ZM768.046 77.1071H769.01V78.0714H768.046V77.1071ZM768.046 76.1429H769.01V77.1071H768.046V76.1429ZM768.046 74.2143H769.01V75.1786H768.046V74.2143ZM767.082 78.0714H768.046V79.0357H767.082V78.0714ZM768.046 79.0357H769.01V80H768.046V79.0357ZM767.082 79.0357H768.046V80H767.082V79.0357ZM766.117 79.0357H767.082V80H766.117V79.0357ZM765.153 79.0357H766.117V80H765.153V79.0357ZM764.189 79.0357H765.153V80H764.189V79.0357ZM764.189 78.0714H765.153V79.0357H764.189V78.0714ZM765.153 78.0714H766.117V79.0357H765.153V78.0714ZM764.189 77.1071H765.153V78.0714H764.189V77.1071ZM763.225 78.0714H764.189V79.0357H763.225V78.0714ZM763.225 77.1071H764.189V78.0714H763.225V77.1071ZM763.225 76.1429H764.189V77.1071H763.225V76.1429ZM763.225 75.1786H764.189V76.1429H763.225V75.1786ZM763.225 74.2143H764.189V75.1786H763.225V74.2143ZM763.225 73.25H764.189V74.2143H763.225V73.25ZM764.189 74.2143H765.153V75.1786H764.189V74.2143ZM764.189 75.1786H765.153V76.1429H764.189V75.1786ZM764.189 76.1429H765.153V77.1071H764.189V76.1429ZM766.117 78.0714H767.082V79.0357H766.117V78.0714ZM766.117 73.25H767.082V74.2143H766.117V73.25ZM770.941 73.25H771.906V74.2143H770.941V73.25ZM770.941 72.2857H771.906V73.25H770.941V72.2857ZM771.906 72.2857H772.87V73.25H771.906V72.2857ZM771.906 73.25H772.87V74.2143H771.906V73.25ZM771.906 74.2143H772.87V75.1786H771.906V74.2143ZM771.906 75.1786H772.87V76.1429H771.906V75.1786ZM771.906 76.1429H772.87V77.1071H771.906V76.1429ZM770.941 76.1429H771.906V77.1071H770.941V76.1429ZM770.941 75.1786H771.906V76.1429H770.941V75.1786ZM770.941 74.2143H771.906V75.1786H770.941V74.2143ZM770.941 77.1071H771.906V78.0714H770.941V77.1071ZM771.906 77.1071H772.87V78.0714H771.906V77.1071ZM771.906 78.0714H772.87V79.0357H771.906V78.0714ZM771.906 79.0357H772.87V80H771.906V79.0357ZM770.941 79.0357H771.906V80H770.941V79.0357ZM770.941 78.0714H771.906V79.0357H770.941V78.0714ZM772.87 73.25H773.834V74.2143H772.87V73.25ZM773.834 73.25H774.799V74.2143H773.834V73.25ZM774.799 73.25H775.763V74.2143H774.799V73.25ZM774.799 72.2857H775.763V73.25H774.799V72.2857ZM773.834 72.2857H774.799V73.25H773.834V72.2857ZM772.87 74.2143H773.834V75.1786H772.87V74.2143ZM775.763 73.25H776.727V74.2143H775.763V73.25ZM774.799 74.2143H775.763V75.1786H774.799V74.2143ZM777.691 72.2857H778.656V73.25H777.691V72.2857ZM778.656 72.2857H779.62V73.25H778.656V72.2857ZM778.656 73.25H779.62V74.2143H778.656V73.25ZM778.656 74.2143H779.62V75.1786H778.656V74.2143ZM778.656 75.1786H779.62V76.1429H778.656V75.1786ZM777.691 74.2143H778.656V75.1786H777.691V74.2143ZM777.691 73.25H778.656V74.2143H777.691V73.25ZM777.691 75.1786H778.656V76.1429H777.691V75.1786ZM777.691 76.1429H778.656V77.1071H777.691V76.1429ZM778.656 76.1429H779.62V77.1071H778.656V76.1429ZM778.656 77.1071H779.62V78.0714H778.656V77.1071ZM779.62 77.1071H780.584V78.0714H779.62V77.1071ZM779.62 78.0714H780.584V79.0357H779.62V78.0714ZM780.584 78.0714H781.549V79.0357H780.584V78.0714ZM781.549 78.0714H782.513V79.0357H781.549V78.0714ZM781.549 77.1071H782.513V78.0714H781.549V77.1071ZM781.549 76.1429H782.513V77.1071H781.549V76.1429ZM782.513 76.1429H783.477V77.1071H782.513V76.1429ZM782.513 77.1071H783.477V78.0714H782.513V77.1071ZM782.513 75.1786H783.477V76.1429H782.513V75.1786ZM781.549 75.1786H782.513V76.1429H781.549V75.1786ZM781.549 72.2857H782.513V73.25H781.549V72.2857ZM782.513 72.2857H783.477V73.25H782.513V72.2857ZM782.513 73.25H783.477V74.2143H782.513V73.25ZM782.513 74.2143H783.477V75.1786H782.513V74.2143ZM781.549 73.25H782.513V74.2143H781.549V73.25ZM781.549 74.2143H782.513V75.1786H781.549V74.2143ZM780.584 79.0357H781.549V80H780.584V79.0357ZM779.62 79.0357H780.584V80H779.62V79.0357ZM779.62 80H780.584V80.9643H779.62V80ZM778.656 80H779.62V80.9643H778.656V80ZM778.656 79.0357H779.62V80H778.656V79.0357ZM778.656 80.9643H779.62V81.9286H778.656V80.9643ZM777.691 80.9643H778.656V81.9286H777.691V80.9643ZM777.691 80H778.656V80.9643H777.691V80ZM780.584 77.1071H781.549V78.0714H780.584V77.1071ZM779.62 76.1429H780.584V77.1071H779.62V76.1429ZM790.22 72.2857H791.184V73.25H790.22V72.2857ZM789.255 72.2857H790.22V73.25H789.255V72.2857ZM789.255 73.25H790.22V74.2143H789.255V73.25ZM790.22 73.25H791.184V74.2143H790.22V73.25ZM791.184 72.2857H792.148V73.25H791.184V72.2857ZM792.148 72.2857H793.112V73.25H792.148V72.2857ZM793.112 72.2857H794.077V73.25H793.112V72.2857ZM793.112 73.25H794.077V74.2143H793.112V73.25ZM792.148 73.25H793.112V74.2143H792.148V73.25ZM793.112 75.1786H794.077V76.1429H793.112V75.1786ZM794.077 73.25H795.041V74.2143H794.077V73.25ZM794.077 74.2143H795.041V75.1786H794.077V74.2143ZM794.077 75.1786H795.041V76.1429H794.077V75.1786ZM794.077 76.1429H795.041V77.1071H794.077V76.1429ZM794.077 77.1071H795.041V78.0714H794.077V77.1071ZM794.077 78.0714H795.041V79.0357H794.077V78.0714ZM793.112 78.0714H794.077V79.0357H793.112V78.0714ZM793.112 77.1071H794.077V78.0714H793.112V77.1071ZM793.112 76.1429H794.077V77.1071H793.112V76.1429ZM793.112 74.2143H794.077V75.1786H793.112V74.2143ZM792.148 78.0714H793.112V79.0357H792.148V78.0714ZM793.112 79.0357H794.077V80H793.112V79.0357ZM792.148 79.0357H793.112V80H792.148V79.0357ZM791.184 79.0357H792.148V80H791.184V79.0357ZM790.22 79.0357H791.184V80H790.22V79.0357ZM789.255 79.0357H790.22V80H789.255V79.0357ZM789.255 78.0714H790.22V79.0357H789.255V78.0714ZM790.22 78.0714H791.184V79.0357H790.22V78.0714ZM789.255 77.1071H790.22V78.0714H789.255V77.1071ZM788.291 78.0714H789.255V79.0357H788.291V78.0714ZM788.291 77.1071H789.255V78.0714H788.291V77.1071ZM788.291 76.1429H789.255V77.1071H788.291V76.1429ZM788.291 75.1786H789.255V76.1429H788.291V75.1786ZM788.291 74.2143H789.255V75.1786H788.291V74.2143ZM788.291 73.25H789.255V74.2143H788.291V73.25ZM789.255 74.2143H790.22V75.1786H789.255V74.2143ZM789.255 75.1786H790.22V76.1429H789.255V75.1786ZM789.255 76.1429H790.22V77.1071H789.255V76.1429ZM791.184 78.0714H792.148V79.0357H791.184V78.0714ZM791.184 73.25H792.148V74.2143H791.184V73.25ZM799.865 70.3571H800.829V71.3214H799.865V70.3571ZM799.865 71.3214H800.829V72.2857H799.865V71.3214ZM798.901 71.3214H799.865V72.2857H798.901V71.3214ZM798.901 70.3571H799.865V71.3214H798.901V70.3571ZM797.936 70.3571H798.901V71.3214H797.936V70.3571ZM797.936 71.3214H798.901V72.2857H797.936V71.3214ZM797.936 72.2857H798.901V73.25H797.936V72.2857ZM796.972 71.3214H797.936V72.2857H796.972V71.3214ZM796.972 72.2857H797.936V73.25H796.972V72.2857ZM796.972 73.25H797.936V74.2143H796.972V73.25ZM796.972 74.2143H797.936V75.1786H796.972V74.2143ZM797.936 74.2143H798.901V75.1786H797.936V74.2143ZM797.936 73.25H798.901V74.2143H797.936V73.25ZM796.972 79.0357H797.936V80H796.972V79.0357ZM796.972 78.0714H797.936V79.0357H796.972V78.0714ZM796.972 77.1071H797.936V78.0714H796.972V77.1071ZM796.972 76.1429H797.936V77.1071H796.972V76.1429ZM796.972 75.1786H797.936V76.1429H796.972V75.1786ZM797.936 75.1786H798.901V76.1429H797.936V75.1786ZM797.936 76.1429H798.901V77.1071H797.936V76.1429ZM797.936 77.1071H798.901V78.0714H797.936V77.1071ZM797.936 78.0714H798.901V79.0357H797.936V78.0714ZM797.936 79.0357H798.901V80H797.936V79.0357ZM796.008 73.25H796.972V74.2143H796.008V73.25ZM798.901 73.25H799.865V74.2143H798.901V73.25ZM799.865 73.25H800.829V74.2143H799.865V73.25ZM796.008 74.2143H796.972V75.1786H796.008V74.2143ZM798.901 74.2143H799.865V75.1786H798.901V74.2143ZM799.865 74.2143H800.829V75.1786H799.865V74.2143ZM811.426 80H810.462V79.0357H811.426V80ZM811.426 79.0357H810.462V78.0714H811.426V79.0357ZM810.462 79.0357H809.498V78.0714H810.462V79.0357ZM809.498 80H808.533V79.0357H809.498V80ZM808.533 80H807.569V79.0357H808.533V80ZM807.569 80H806.605V79.0357H807.569V80ZM807.569 79.0357H806.605V78.0714H807.569V79.0357ZM808.533 79.0357H807.569V78.0714H808.533V79.0357ZM806.605 79.0357H805.641V78.0714H806.605V79.0357ZM806.605 78.0714H805.641V77.1071H806.605V78.0714ZM806.605 74.2143H805.641V73.25H806.605V74.2143ZM807.569 74.2143H806.605V73.25H807.569V74.2143ZM807.569 78.0714H806.605V77.1071H807.569V78.0714ZM808.533 74.2143H807.569V73.25H808.533V74.2143ZM807.569 73.25H806.605V72.2857H807.569V73.25ZM808.533 73.25H807.569V72.2857H808.533V73.25ZM809.498 73.25H808.533V72.2857H809.498V73.25ZM810.462 73.25H809.498V72.2857H810.462V73.25ZM811.426 73.25H810.462V72.2857H811.426V73.25ZM811.426 74.2143H810.462V73.25H811.426V74.2143ZM810.462 74.2143H809.498V73.25H810.462V74.2143ZM811.426 75.1786H810.462V74.2143H811.426V75.1786ZM812.391 74.2143H811.426V73.25H812.391V74.2143ZM812.391 75.1786H811.426V74.2143H812.391V75.1786ZM812.391 76.1429H811.426V75.1786H812.391V76.1429ZM812.391 77.1071H811.426V76.1429H812.391V77.1071ZM812.391 78.0714H811.426V77.1071H812.391V78.0714ZM812.391 79.0357H811.426V78.0714H812.391V79.0357ZM811.426 78.0714H810.462V77.1071H811.426V78.0714ZM811.426 77.1071H810.462V76.1429H811.426V77.1071ZM811.426 76.1429H810.462V75.1786H811.426V76.1429ZM809.498 74.2143H808.533V73.25H809.498V74.2143ZM809.498 79.0357H808.533V78.0714H809.498V79.0357ZM811.426 79.0357H812.391V80H811.426V79.0357ZM809.498 75.1786H810.462V76.1429H809.498V75.1786ZM808.533 75.1786H809.498V76.1429H808.533V75.1786ZM807.569 75.1786H808.533V76.1429H807.569V75.1786ZM806.605 75.1786H807.569V76.1429H806.605V75.1786ZM805.641 76.1429H806.605V77.1071H805.641V76.1429ZM806.605 76.1429H807.569V77.1071H806.605V76.1429ZM809.498 76.1429H810.462V77.1071H809.498V76.1429ZM808.533 76.1429H809.498V77.1071H808.533V76.1429ZM807.569 76.1429H808.533V77.1071H807.569V76.1429ZM821.064 78.0714H822.028V79.0357H821.064V78.0714ZM821.064 79.0357H822.028V80H821.064V79.0357ZM820.1 79.0357H821.064V80H820.1V79.0357ZM820.1 78.0714H821.064V79.0357H820.1V78.0714ZM819.136 79.0357H820.1V80H819.136V79.0357ZM819.136 78.0714H820.1V79.0357H819.136V78.0714ZM818.171 78.0714H819.136V79.0357H818.171V78.0714ZM818.171 77.1071H819.136V78.0714H818.171V77.1071ZM818.171 76.1429H819.136V77.1071H818.171V76.1429ZM818.171 75.1786H819.136V76.1429H818.171V75.1786ZM818.171 74.2143H819.136V75.1786H818.171V74.2143ZM818.171 73.25H819.136V74.2143H818.171V73.25ZM819.136 76.1429H820.1V77.1071H819.136V76.1429ZM819.136 77.1071H820.1V78.0714H819.136V77.1071ZM819.136 75.1786H820.1V76.1429H819.136V75.1786ZM819.136 74.2143H820.1V75.1786H819.136V74.2143ZM819.136 70.3571H820.1V71.3214H819.136V70.3571ZM819.136 71.3214H820.1V72.2857H819.136V71.3214ZM819.136 72.2857H820.1V73.25H819.136V72.2857ZM819.136 73.25H820.1V74.2143H819.136V73.25ZM818.171 72.2857H819.136V73.25H818.171V72.2857ZM817.207 73.25H818.171V74.2143H817.207V73.25ZM820.1 73.25H821.064V74.2143H820.1V73.25ZM821.064 73.25H822.028V74.2143H821.064V73.25ZM818.171 71.3214H819.136V72.2857H818.171V71.3214ZM817.207 74.2143H818.171V75.1786H817.207V74.2143ZM820.1 74.2143H821.064V75.1786H820.1V74.2143ZM821.064 74.2143H822.028V75.1786H821.064V74.2143ZM824.919 72.2857H825.883V73.25H824.919V72.2857ZM823.955 72.2857H824.919V73.25H823.955V72.2857ZM823.955 73.25H824.919V74.2143H823.955V73.25ZM824.919 73.25H825.883V74.2143H824.919V73.25ZM825.883 72.2857H826.847V73.25H825.883V72.2857ZM826.847 72.2857H827.812V73.25H826.847V72.2857ZM827.812 72.2857H828.776V73.25H827.812V72.2857ZM827.812 73.25H828.776V74.2143H827.812V73.25ZM826.847 73.25H827.812V74.2143H826.847V73.25ZM827.812 75.1786H828.776V76.1429H827.812V75.1786ZM828.776 73.25H829.74V74.2143H828.776V73.25ZM828.776 74.2143H829.74V75.1786H828.776V74.2143ZM828.776 75.1786H829.74V76.1429H828.776V75.1786ZM828.776 76.1429H829.74V77.1071H828.776V76.1429ZM828.776 77.1071H829.74V78.0714H828.776V77.1071ZM828.776 78.0714H829.74V79.0357H828.776V78.0714ZM827.812 78.0714H828.776V79.0357H827.812V78.0714ZM827.812 77.1071H828.776V78.0714H827.812V77.1071ZM827.812 76.1429H828.776V77.1071H827.812V76.1429ZM827.812 74.2143H828.776V75.1786H827.812V74.2143ZM826.847 78.0714H827.812V79.0357H826.847V78.0714ZM827.812 79.0357H828.776V80H827.812V79.0357ZM826.847 79.0357H827.812V80H826.847V79.0357ZM825.883 79.0357H826.847V80H825.883V79.0357ZM824.919 79.0357H825.883V80H824.919V79.0357ZM823.955 79.0357H824.919V80H823.955V79.0357ZM823.955 78.0714H824.919V79.0357H823.955V78.0714ZM824.919 78.0714H825.883V79.0357H824.919V78.0714ZM823.955 77.1071H824.919V78.0714H823.955V77.1071ZM822.99 78.0714H823.955V79.0357H822.99V78.0714ZM822.99 77.1071H823.955V78.0714H822.99V77.1071ZM822.99 76.1429H823.955V77.1071H822.99V76.1429ZM822.99 75.1786H823.955V76.1429H822.99V75.1786ZM822.99 74.2143H823.955V75.1786H822.99V74.2143ZM822.99 73.25H823.955V74.2143H822.99V73.25ZM823.955 74.2143H824.919V75.1786H823.955V74.2143ZM823.955 75.1786H824.919V76.1429H823.955V75.1786ZM823.955 76.1429H824.919V77.1071H823.955V76.1429ZM825.883 78.0714H826.847V79.0357H825.883V78.0714ZM825.883 73.25H826.847V74.2143H825.883V73.25ZM830.707 70.3571H832.636V72.2857H830.707V70.3571ZM830.707 73.25H832.636V80H830.707V73.25ZM833.607 70.3571H834.572V71.3214H833.607V70.3571ZM834.572 70.3571H835.536V71.3214H834.572V70.3571ZM834.572 71.3214H835.536V72.2857H834.572V71.3214ZM834.572 72.2857H835.536V73.25H834.572V72.2857ZM834.572 73.25H835.536V74.2143H834.572V73.25ZM834.572 74.2143H835.536V75.1786H834.572V74.2143ZM834.572 75.1786H835.536V76.1429H834.572V75.1786ZM833.607 75.1786H834.572V76.1429H833.607V75.1786ZM833.607 76.1429H834.572V77.1071H833.607V76.1429ZM833.607 77.1071H834.572V78.0714H833.607V77.1071ZM833.607 78.0714H834.572V79.0357H833.607V78.0714ZM833.607 79.0357H834.572V80H833.607V79.0357ZM834.572 79.0357H835.536V80H834.572V79.0357ZM834.572 78.0714H835.536V79.0357H834.572V78.0714ZM834.572 77.1071H835.536V78.0714H834.572V77.1071ZM834.572 76.1429H835.536V77.1071H834.572V76.1429ZM833.607 74.2143H834.572V75.1786H833.607V74.2143ZM833.607 73.25H834.572V74.2143H833.607V73.25ZM833.607 72.2857H834.572V73.25H833.607V72.2857ZM833.607 71.3214H834.572V72.2857H833.607V71.3214ZM838.436 72.2857H839.401V73.25H838.436V72.2857ZM837.472 72.2857H838.436V73.25H837.472V72.2857ZM837.472 73.25H838.436V74.2143H837.472V73.25ZM838.436 73.25H839.401V74.2143H838.436V73.25ZM839.401 72.2857H840.365V73.25H839.401V72.2857ZM840.365 72.2857H841.329V73.25H840.365V72.2857ZM841.329 72.2857H842.294V73.25H841.329V72.2857ZM841.329 73.25H842.294V74.2143H841.329V73.25ZM840.365 73.25H841.329V74.2143H840.365V73.25ZM842.294 73.25H843.258V74.2143H842.294V73.25ZM842.294 74.2143H843.258V75.1786H842.294V74.2143ZM842.294 78.0714H843.258V79.0357H842.294V78.0714ZM841.329 78.0714H842.294V79.0357H841.329V78.0714ZM841.329 74.2143H842.294V75.1786H841.329V74.2143ZM840.365 78.0714H841.329V79.0357H840.365V78.0714ZM841.329 79.0357H842.294V80H841.329V79.0357ZM840.365 79.0357H841.329V80H840.365V79.0357ZM839.401 79.0357H840.365V80H839.401V79.0357ZM838.436 79.0357H839.401V80H838.436V79.0357ZM837.472 79.0357H838.436V80H837.472V79.0357ZM837.472 78.0714H838.436V79.0357H837.472V78.0714ZM838.436 78.0714H839.401V79.0357H838.436V78.0714ZM837.472 77.1071H838.436V78.0714H837.472V77.1071ZM836.508 78.0714H837.472V79.0357H836.508V78.0714ZM836.508 77.1071H837.472V78.0714H836.508V77.1071ZM836.508 76.1429H837.472V77.1071H836.508V76.1429ZM836.508 75.1786H837.472V76.1429H836.508V75.1786ZM836.508 74.2143H837.472V75.1786H836.508V74.2143ZM836.508 73.25H837.472V74.2143H836.508V73.25ZM837.472 74.2143H838.436V75.1786H837.472V74.2143ZM837.472 75.1786H838.436V76.1429H837.472V75.1786ZM837.472 76.1429H838.436V77.1071H837.472V76.1429ZM839.401 78.0714H840.365V79.0357H839.401V78.0714ZM839.401 73.25H840.365V74.2143H839.401V73.25ZM841.329 75.1786H842.294V76.1429H841.329V75.1786ZM842.294 75.1786H843.258V76.1429H842.294V75.1786ZM838.436 76.1429H839.401V77.1071H838.436V76.1429ZM839.401 76.1429H840.365V77.1071H839.401V76.1429ZM840.365 76.1429H841.329V77.1071H840.365V76.1429ZM841.329 76.1429H842.294V77.1071H841.329V76.1429ZM842.294 76.1429H843.258V77.1071H842.294V76.1429ZM840.365 75.1786H841.329V76.1429H840.365V75.1786ZM839.401 75.1786H840.365V76.1429H839.401V75.1786ZM838.436 75.1786H839.401V76.1429H838.436V75.1786ZM848.082 78.0714H849.046V79.0357H848.082V78.0714ZM848.082 79.0357H849.046V80H848.082V79.0357ZM847.117 79.0357H848.082V80H847.117V79.0357ZM847.117 78.0714H848.082V79.0357H847.117V78.0714ZM846.153 79.0357H847.117V80H846.153V79.0357ZM846.153 78.0714H847.117V79.0357H846.153V78.0714ZM845.189 78.0714H846.153V79.0357H845.189V78.0714ZM845.189 77.1071H846.153V78.0714H845.189V77.1071ZM845.189 76.1429H846.153V77.1071H845.189V76.1429ZM845.189 75.1786H846.153V76.1429H845.189V75.1786ZM845.189 74.2143H846.153V75.1786H845.189V74.2143ZM845.189 73.25H846.153V74.2143H845.189V73.25ZM846.153 76.1429H847.117V77.1071H846.153V76.1429ZM846.153 77.1071H847.117V78.0714H846.153V77.1071ZM846.153 75.1786H847.117V76.1429H846.153V75.1786ZM846.153 74.2143H847.117V75.1786H846.153V74.2143ZM846.153 70.3571H847.117V71.3214H846.153V70.3571ZM846.153 71.3214H847.117V72.2857H846.153V71.3214ZM846.153 72.2857H847.117V73.25H846.153V72.2857ZM846.153 73.25H847.117V74.2143H846.153V73.25ZM845.189 72.2857H846.153V73.25H845.189V72.2857ZM844.225 73.25H845.189V74.2143H844.225V73.25ZM847.117 73.25H848.082V74.2143H847.117V73.25ZM848.082 73.25H849.046V74.2143H848.082V73.25ZM845.189 71.3214H846.153V72.2857H845.189V71.3214ZM844.225 74.2143H845.189V75.1786H844.225V74.2143ZM847.117 74.2143H848.082V75.1786H847.117V74.2143ZM848.082 74.2143H849.046V75.1786H848.082V74.2143ZM853.857 73.25H854.822V74.2143H853.857V73.25ZM853.857 72.2857H854.822V73.25H853.857V72.2857ZM854.822 72.2857H855.786V73.25H854.822V72.2857ZM854.822 73.25H855.786V74.2143H854.822V73.25ZM854.822 74.2143H855.786V75.1786H854.822V74.2143ZM854.822 75.1786H855.786V76.1429H854.822V75.1786ZM854.822 76.1429H855.786V77.1071H854.822V76.1429ZM853.857 76.1429H854.822V77.1071H853.857V76.1429ZM853.857 75.1786H854.822V76.1429H853.857V75.1786ZM853.857 74.2143H854.822V75.1786H853.857V74.2143ZM853.857 77.1071H854.822V78.0714H853.857V77.1071ZM854.822 77.1071H855.786V78.0714H854.822V77.1071ZM854.822 78.0714H855.786V79.0357H854.822V78.0714ZM854.822 79.0357H855.786V80H854.822V79.0357ZM853.857 79.0357H854.822V80H853.857V79.0357ZM853.857 78.0714H854.822V79.0357H853.857V78.0714ZM858.679 79.0357H859.643V80H858.679V79.0357ZM859.643 78.0714H860.607V79.0357H859.643V78.0714ZM859.643 77.1071H860.607V78.0714H859.643V77.1071ZM859.643 76.1429H860.607V77.1071H859.643V76.1429ZM859.643 75.1786H860.607V76.1429H859.643V75.1786ZM859.643 74.2143H860.607V75.1786H859.643V74.2143ZM859.643 73.25H860.607V74.2143H859.643V73.25ZM858.679 75.1786H859.643V76.1429H858.679V75.1786ZM858.679 76.1429H859.643V77.1071H858.679V76.1429ZM858.679 77.1071H859.643V78.0714H858.679V77.1071ZM858.679 78.0714H859.643V79.0357H858.679V78.0714ZM858.679 74.2143H859.643V75.1786H858.679V74.2143ZM855.786 73.25H856.75V74.2143H855.786V73.25ZM856.75 73.25H857.715V74.2143H856.75V73.25ZM857.715 73.25H858.679V74.2143H857.715V73.25ZM857.715 72.2857H858.679V73.25H857.715V72.2857ZM858.679 72.2857H859.643V73.25H858.679V72.2857ZM858.679 73.25H859.643V74.2143H858.679V73.25ZM856.75 72.2857H857.715V73.25H856.75V72.2857ZM855.786 79.0357H856.75V80H855.786V79.0357ZM856.75 79.0357H857.715V80H856.75V79.0357ZM857.715 79.0357H858.679V80H857.715V79.0357ZM857.715 78.0714H858.679V79.0357H857.715V78.0714ZM856.75 78.0714H857.715V79.0357H856.75V78.0714ZM855.786 78.0714H856.75V79.0357H855.786V78.0714ZM853.857 80H854.822V80.9643H853.857V80ZM854.822 80H855.786V80.9643H854.822V80ZM854.822 80.9643H855.786V81.9286H854.822V80.9643ZM853.857 80.9643H854.822V81.9286H853.857V80.9643ZM867.36 80H866.396V79.0357H867.36V80ZM867.36 79.0357H866.396V78.0714H867.36V79.0357ZM866.396 79.0357H865.431V78.0714H866.396V79.0357ZM865.431 80H864.467V79.0357H865.431V80ZM864.467 80H863.503V79.0357H864.467V80ZM863.503 80H862.539V79.0357H863.503V80ZM863.503 79.0357H862.539V78.0714H863.503V79.0357ZM864.467 79.0357H863.503V78.0714H864.467V79.0357ZM862.539 79.0357H861.574V78.0714H862.539V79.0357ZM862.539 78.0714H861.574V77.1071H862.539V78.0714ZM862.539 74.2143H861.574V73.25H862.539V74.2143ZM863.503 74.2143H862.539V73.25H863.503V74.2143ZM863.503 78.0714H862.539V77.1071H863.503V78.0714ZM864.467 74.2143H863.503V73.25H864.467V74.2143ZM863.503 73.25H862.539V72.2857H863.503V73.25ZM864.467 73.25H863.503V72.2857H864.467V73.25ZM865.431 73.25H864.467V72.2857H865.431V73.25ZM866.396 73.25H865.431V72.2857H866.396V73.25ZM867.36 73.25H866.396V72.2857H867.36V73.25ZM867.36 74.2143H866.396V73.25H867.36V74.2143ZM866.396 74.2143H865.431V73.25H866.396V74.2143ZM867.36 75.1786H866.396V74.2143H867.36V75.1786ZM868.324 74.2143H867.36V73.25H868.324V74.2143ZM868.324 75.1786H867.36V74.2143H868.324V75.1786ZM868.324 76.1429H867.36V75.1786H868.324V76.1429ZM868.324 77.1071H867.36V76.1429H868.324V77.1071ZM868.324 78.0714H867.36V77.1071H868.324V78.0714ZM868.324 79.0357H867.36V78.0714H868.324V79.0357ZM867.36 78.0714H866.396V77.1071H867.36V78.0714ZM867.36 77.1071H866.396V76.1429H867.36V77.1071ZM867.36 76.1429H866.396V75.1786H867.36V76.1429ZM865.431 74.2143H864.467V73.25H865.431V74.2143ZM865.431 79.0357H864.467V78.0714H865.431V79.0357ZM867.36 79.0357H868.324V80H867.36V79.0357ZM865.431 75.1786H866.396V76.1429H865.431V75.1786ZM864.467 75.1786H865.431V76.1429H864.467V75.1786ZM863.503 75.1786H864.467V76.1429H863.503V75.1786ZM862.539 75.1786H863.503V76.1429H862.539V75.1786ZM861.574 76.1429H862.539V77.1071H861.574V76.1429ZM862.539 76.1429H863.503V77.1071H862.539V76.1429ZM865.431 76.1429H866.396V77.1071H865.431V76.1429ZM864.467 76.1429H865.431V77.1071H864.467V76.1429ZM863.503 76.1429H864.467V77.1071H863.503V76.1429ZM869.291 73.25H870.255V74.2143H869.291V73.25ZM869.291 72.2857H870.255V73.25H869.291V72.2857ZM870.255 72.2857H871.22V73.25H870.255V72.2857ZM870.255 73.25H871.22V74.2143H870.255V73.25ZM870.255 74.2143H871.22V75.1786H870.255V74.2143ZM870.255 75.1786H871.22V76.1429H870.255V75.1786ZM870.255 76.1429H871.22V77.1071H870.255V76.1429ZM869.291 76.1429H870.255V77.1071H869.291V76.1429ZM869.291 75.1786H870.255V76.1429H869.291V75.1786ZM869.291 74.2143H870.255V75.1786H869.291V74.2143ZM869.291 77.1071H870.255V78.0714H869.291V77.1071ZM870.255 77.1071H871.22V78.0714H870.255V77.1071ZM870.255 78.0714H871.22V79.0357H870.255V78.0714ZM870.255 79.0357H871.22V80H870.255V79.0357ZM869.291 79.0357H870.255V80H869.291V79.0357ZM869.291 78.0714H870.255V79.0357H869.291V78.0714ZM874.112 79.0357H875.077V80H874.112V79.0357ZM875.077 78.0714H876.041V79.0357H875.077V78.0714ZM875.077 77.1071H876.041V78.0714H875.077V77.1071ZM875.077 76.1429H876.041V77.1071H875.077V76.1429ZM875.077 75.1786H876.041V76.1429H875.077V75.1786ZM875.077 74.2143H876.041V75.1786H875.077V74.2143ZM875.077 73.25H876.041V74.2143H875.077V73.25ZM874.112 75.1786H875.077V76.1429H874.112V75.1786ZM874.112 76.1429H875.077V77.1071H874.112V76.1429ZM874.112 77.1071H875.077V78.0714H874.112V77.1071ZM874.112 78.0714H875.077V79.0357H874.112V78.0714ZM874.112 74.2143H875.077V75.1786H874.112V74.2143ZM871.22 73.25H872.184V74.2143H871.22V73.25ZM872.184 73.25H873.148V74.2143H872.184V73.25ZM873.148 73.25H874.112V74.2143H873.148V73.25ZM873.148 72.2857H874.112V73.25H873.148V72.2857ZM874.112 72.2857H875.077V73.25H874.112V72.2857ZM874.112 73.25H875.077V74.2143H874.112V73.25ZM872.184 72.2857H873.148V73.25H872.184V72.2857ZM871.22 79.0357H872.184V80H871.22V79.0357ZM872.184 79.0357H873.148V80H872.184V79.0357ZM873.148 79.0357H874.112V80H873.148V79.0357ZM873.148 78.0714H874.112V79.0357H873.148V78.0714ZM872.184 78.0714H873.148V79.0357H872.184V78.0714ZM871.22 78.0714H872.184V79.0357H871.22V78.0714ZM869.291 80H870.255V80.9643H869.291V80ZM870.255 80H871.22V80.9643H870.255V80ZM870.255 80.9643H871.22V81.9286H870.255V80.9643ZM869.291 80.9643H870.255V81.9286H869.291V80.9643ZM878.936 72.2857H879.901V73.25H878.936V72.2857ZM877.972 72.2857H878.936V73.25H877.972V72.2857ZM877.972 73.25H878.936V74.2143H877.972V73.25ZM878.936 73.25H879.901V74.2143H878.936V73.25ZM879.901 72.2857H880.865V73.25H879.901V72.2857ZM880.865 72.2857H881.829V73.25H880.865V72.2857ZM881.829 72.2857H882.794V73.25H881.829V72.2857ZM881.829 73.25H882.794V74.2143H881.829V73.25ZM880.865 73.25H881.829V74.2143H880.865V73.25ZM882.794 73.25H883.758V74.2143H882.794V73.25ZM882.794 74.2143H883.758V75.1786H882.794V74.2143ZM882.794 78.0714H883.758V79.0357H882.794V78.0714ZM881.829 78.0714H882.794V79.0357H881.829V78.0714ZM881.829 74.2143H882.794V75.1786H881.829V74.2143ZM880.865 78.0714H881.829V79.0357H880.865V78.0714ZM881.829 79.0357H882.794V80H881.829V79.0357ZM880.865 79.0357H881.829V80H880.865V79.0357ZM879.901 79.0357H880.865V80H879.901V79.0357ZM878.936 79.0357H879.901V80H878.936V79.0357ZM877.972 79.0357H878.936V80H877.972V79.0357ZM877.972 78.0714H878.936V79.0357H877.972V78.0714ZM878.936 78.0714H879.901V79.0357H878.936V78.0714ZM877.972 77.1071H878.936V78.0714H877.972V77.1071ZM877.008 78.0714H877.972V79.0357H877.008V78.0714ZM877.008 77.1071H877.972V78.0714H877.008V77.1071ZM877.008 76.1429H877.972V77.1071H877.008V76.1429ZM877.008 75.1786H877.972V76.1429H877.008V75.1786ZM877.008 74.2143H877.972V75.1786H877.008V74.2143ZM877.008 73.25H877.972V74.2143H877.008V73.25ZM877.972 74.2143H878.936V75.1786H877.972V74.2143ZM877.972 75.1786H878.936V76.1429H877.972V75.1786ZM877.972 76.1429H878.936V77.1071H877.972V76.1429ZM879.901 78.0714H880.865V79.0357H879.901V78.0714ZM879.901 73.25H880.865V74.2143H879.901V73.25ZM881.829 75.1786H882.794V76.1429H881.829V75.1786ZM882.794 75.1786H883.758V76.1429H882.794V75.1786ZM878.936 76.1429H879.901V77.1071H878.936V76.1429ZM879.901 76.1429H880.865V77.1071H879.901V76.1429ZM880.865 76.1429H881.829V77.1071H880.865V76.1429ZM881.829 76.1429H882.794V77.1071H881.829V76.1429ZM882.794 76.1429H883.758V77.1071H882.794V76.1429ZM880.865 75.1786H881.829V76.1429H880.865V75.1786ZM879.901 75.1786H880.865V76.1429H879.901V75.1786ZM878.936 75.1786H879.901V76.1429H878.936V75.1786ZM884.725 73.25H885.689V74.2143H884.725V73.25ZM884.725 72.2857H885.689V73.25H884.725V72.2857ZM885.689 72.2857H886.653V73.25H885.689V72.2857ZM885.689 73.25H886.653V74.2143H885.689V73.25ZM885.689 74.2143H886.653V75.1786H885.689V74.2143ZM885.689 75.1786H886.653V76.1429H885.689V75.1786ZM885.689 76.1429H886.653V77.1071H885.689V76.1429ZM884.725 76.1429H885.689V77.1071H884.725V76.1429ZM884.725 75.1786H885.689V76.1429H884.725V75.1786ZM884.725 74.2143H885.689V75.1786H884.725V74.2143ZM884.725 77.1071H885.689V78.0714H884.725V77.1071ZM885.689 77.1071H886.653V78.0714H885.689V77.1071ZM885.689 78.0714H886.653V79.0357H885.689V78.0714ZM885.689 79.0357H886.653V80H885.689V79.0357ZM884.725 79.0357H885.689V80H884.725V79.0357ZM884.725 78.0714H885.689V79.0357H884.725V78.0714ZM886.653 73.25H887.617V74.2143H886.653V73.25ZM887.617 73.25H888.582V74.2143H887.617V73.25ZM888.582 73.25H889.546V74.2143H888.582V73.25ZM888.582 72.2857H889.546V73.25H888.582V72.2857ZM887.617 72.2857H888.582V73.25H887.617V72.2857ZM886.653 74.2143H887.617V75.1786H886.653V74.2143ZM889.546 73.25H890.51V74.2143H889.546V73.25ZM888.582 74.2143H889.546V75.1786H888.582V74.2143ZM895.324 73.25H896.289V74.2143H895.324V73.25ZM895.324 72.2857H896.289V73.25H895.324V72.2857ZM896.289 72.2857H897.253V73.25H896.289V72.2857ZM896.289 73.25H897.253V74.2143H896.289V73.25ZM896.289 74.2143H897.253V75.1786H896.289V74.2143ZM896.289 75.1786H897.253V76.1429H896.289V75.1786ZM896.289 76.1429H897.253V77.1071H896.289V76.1429ZM895.324 76.1429H896.289V77.1071H895.324V76.1429ZM895.324 75.1786H896.289V76.1429H895.324V75.1786ZM895.324 74.2143H896.289V75.1786H895.324V74.2143ZM895.324 77.1071H896.289V78.0714H895.324V77.1071ZM896.289 77.1071H897.253V78.0714H896.289V77.1071ZM896.289 78.0714H897.253V79.0357H896.289V78.0714ZM896.289 79.0357H897.253V80H896.289V79.0357ZM895.324 79.0357H896.289V80H895.324V79.0357ZM895.324 78.0714H896.289V79.0357H895.324V78.0714ZM897.253 73.25H898.217V74.2143H897.253V73.25ZM898.217 73.25H899.181V74.2143H898.217V73.25ZM899.181 73.25H900.146V74.2143H899.181V73.25ZM899.181 72.2857H900.146V73.25H899.181V72.2857ZM898.217 72.2857H899.181V73.25H898.217V72.2857ZM897.253 74.2143H898.217V75.1786H897.253V74.2143ZM900.146 73.25H901.11V74.2143H900.146V73.25ZM899.181 74.2143H900.146V75.1786H899.181V74.2143ZM908.824 79.0357H907.86V78.0714H908.824V79.0357ZM908.824 80H907.86V79.0357H908.824V80ZM907.86 80H906.896V79.0357H907.86V80ZM907.86 79.0357H906.896V78.0714H907.86V79.0357ZM907.86 78.0714H906.896V77.1071H907.86V78.0714ZM907.86 77.1071H906.896V76.1429H907.86V77.1071ZM907.86 76.1429H906.896V75.1786H907.86V76.1429ZM908.824 76.1429H907.86V75.1786H908.824V76.1429ZM908.824 77.1071H907.86V76.1429H908.824V77.1071ZM908.824 78.0714H907.86V77.1071H908.824V78.0714ZM908.824 75.1786H907.86V74.2143H908.824V75.1786ZM907.86 75.1786H906.896V74.2143H907.86V75.1786ZM907.86 74.2143H906.896V73.25H907.86V74.2143ZM907.86 73.25H906.896V72.2857H907.86V73.25ZM908.824 73.25H907.86V72.2857H908.824V73.25ZM908.824 74.2143H907.86V73.25H908.824V74.2143ZM904.003 73.25H903.039V72.2857H904.003V73.25ZM903.039 73.25H902.074V72.2857H903.039V73.25ZM903.039 74.2143H902.074V73.25H903.039V74.2143ZM903.039 75.1786H902.074V74.2143H903.039V75.1786ZM903.039 76.1429H902.074V75.1786H903.039V76.1429ZM903.039 77.1071H902.074V76.1429H903.039V77.1071ZM903.039 78.0714H902.074V77.1071H903.039V78.0714ZM903.039 79.0357H902.074V78.0714H903.039V79.0357ZM904.003 77.1071H903.039V76.1429H904.003V77.1071ZM904.003 76.1429H903.039V75.1786H904.003V76.1429ZM904.003 75.1786H903.039V74.2143H904.003V75.1786ZM904.003 74.2143H903.039V73.25H904.003V74.2143ZM904.003 78.0714H903.039V77.1071H904.003V78.0714ZM906.896 79.0357H905.931V78.0714H906.896V79.0357ZM905.931 79.0357H904.967V78.0714H905.931V79.0357ZM904.967 79.0357H904.003V78.0714H904.967V79.0357ZM904.967 80H904.003V79.0357H904.967V80ZM904.003 80H903.039V79.0357H904.003V80ZM904.003 79.0357H903.039V78.0714H904.003V79.0357ZM905.931 80H904.967V79.0357H905.931V80ZM909.791 73.25H910.755V74.2143H909.791V73.25ZM910.755 74.2143H911.72V75.1786H910.755V74.2143ZM909.791 74.2143H910.755V75.1786H909.791V74.2143ZM909.791 75.1786H910.755V76.1429H909.791V75.1786ZM910.755 75.1786H911.72V76.1429H910.755V75.1786ZM910.755 76.1429H911.72V77.1071H910.755V76.1429ZM911.72 76.1429H912.684V77.1071H911.72V76.1429ZM912.684 76.1429H913.648V77.1071H912.684V76.1429ZM913.648 75.1786H914.612V76.1429H913.648V75.1786ZM912.684 75.1786H913.648V76.1429H912.684V75.1786ZM911.72 75.1786H912.684V76.1429H911.72V75.1786ZM913.648 76.1429H914.612V77.1071H913.648V76.1429ZM914.612 76.1429H915.577V77.1071H914.612V76.1429ZM914.612 77.1071H915.577V78.0714H914.612V77.1071ZM913.648 77.1071H914.612V78.0714H913.648V77.1071ZM913.648 78.0714H914.612V79.0357H913.648V78.0714ZM914.612 78.0714H915.577V79.0357H914.612V78.0714ZM913.648 79.0357H914.612V80H913.648V79.0357ZM912.684 78.0714H913.648V79.0357H912.684V78.0714ZM911.72 78.0714H912.684V79.0357H911.72V78.0714ZM910.755 78.0714H911.72V79.0357H910.755V78.0714ZM909.791 78.0714H910.755V79.0357H909.791V78.0714ZM910.755 79.0357H911.72V80H910.755V79.0357ZM911.72 79.0357H912.684V80H911.72V79.0357ZM912.684 79.0357H913.648V80H912.684V79.0357ZM914.612 73.25H915.577V74.2143H914.612V73.25ZM913.648 73.25H914.612V74.2143H913.648V73.25ZM913.648 72.2857H914.612V73.25H913.648V72.2857ZM912.684 72.2857H913.648V73.25H912.684V72.2857ZM911.72 72.2857H912.684V73.25H911.72V72.2857ZM910.755 72.2857H911.72V73.25H910.755V72.2857ZM910.755 73.25H911.72V74.2143H910.755V73.25ZM911.72 73.25H912.684V74.2143H911.72V73.25ZM912.684 73.25H913.648V74.2143H912.684V73.25ZM916.541 73.25H917.505V74.2143H916.541V73.25ZM916.541 72.2857H917.505V73.25H916.541V72.2857ZM917.505 72.2857H918.47V73.25H917.505V72.2857ZM917.505 73.25H918.47V74.2143H917.505V73.25ZM917.505 74.2143H918.47V75.1786H917.505V74.2143ZM917.505 75.1786H918.47V76.1429H917.505V75.1786ZM917.505 76.1429H918.47V77.1071H917.505V76.1429ZM916.541 76.1429H917.505V77.1071H916.541V76.1429ZM916.541 75.1786H917.505V76.1429H916.541V75.1786ZM916.541 74.2143H917.505V75.1786H916.541V74.2143ZM916.541 77.1071H917.505V78.0714H916.541V77.1071ZM917.505 77.1071H918.47V78.0714H917.505V77.1071ZM917.505 78.0714H918.47V79.0357H917.505V78.0714ZM917.505 79.0357H918.47V80H917.505V79.0357ZM916.541 79.0357H917.505V80H916.541V79.0357ZM916.541 78.0714H917.505V79.0357H916.541V78.0714ZM921.362 79.0357H922.327V80H921.362V79.0357ZM922.327 79.0357H923.291V80H922.327V79.0357ZM922.327 78.0714H923.291V79.0357H922.327V78.0714ZM922.327 77.1071H923.291V78.0714H922.327V77.1071ZM922.327 76.1429H923.291V77.1071H922.327V76.1429ZM922.327 75.1786H923.291V76.1429H922.327V75.1786ZM922.327 74.2143H923.291V75.1786H922.327V74.2143ZM922.327 73.25H923.291V74.2143H922.327V73.25ZM921.362 75.1786H922.327V76.1429H921.362V75.1786ZM921.362 76.1429H922.327V77.1071H921.362V76.1429ZM921.362 77.1071H922.327V78.0714H921.362V77.1071ZM921.362 78.0714H922.327V79.0357H921.362V78.0714ZM921.362 74.2143H922.327V75.1786H921.362V74.2143ZM918.47 73.25H919.434V74.2143H918.47V73.25ZM919.434 73.25H920.398V74.2143H919.434V73.25ZM920.398 73.25H921.362V74.2143H920.398V73.25ZM920.398 72.2857H921.362V73.25H920.398V72.2857ZM921.362 72.2857H922.327V73.25H921.362V72.2857ZM921.362 73.25H922.327V74.2143H921.362V73.25ZM919.434 72.2857H920.398V73.25H919.434V72.2857ZM916.541 70.3571H917.505V71.3214H916.541V70.3571ZM917.505 70.3571H918.47V71.3214H917.505V70.3571ZM917.505 71.3214H918.47V72.2857H917.505V71.3214ZM916.541 71.3214H917.505V72.2857H916.541V71.3214ZM924.258 78.0714H925.222V79.0357H924.258V78.0714ZM925.222 78.0714H926.186V79.0357H925.222V78.0714ZM925.222 79.0357H926.186V80H925.222V79.0357ZM924.258 79.0357H925.222V80H924.258V79.0357Z" fill="#C37DC8"/>
</g>
<path d="M974 8L967 15L680 15L687.5 7.99999L974 8Z" fill="#A662A7"/>
<path d="M974 94L967 101L967 15L974 8L974 94Z" fill="#A662A7"/>
<defs>
<filter id="filter0_d_5424_493953" x="665" y="0" width="317" height="116" filterUnits="userSpaceOnUse" color-interpolation-filters="sRGB">
<feFlood flood-opacity="0" result="BackgroundImageFix"/>
<feColorMatrix in="SourceAlpha" type="matrix" values="0 0 0 0 0 0 0 0 0 0 0 0 0 0 0 0 0 0 127 0" result="hardAlpha"/>
<feOffset/>
<feGaussianBlur stdDeviation="7.5"/>
<feComposite in2="hardAlpha" operator="out"/>
<feColorMatrix type="matrix" values="0 0 0 0 0.984314 0 0 0 0 1 0 0 0 0 0.843137 0 0 0 0.2 0"/>
<feBlend mode="normal" in2="BackgroundImageFix" result="effect1_dropShadow_5424_493953"/>
<feBlend mode="normal" in="SourceGraphic" in2="effect1_dropShadow_5424_493953" result="shape"/>
</filter>
</defs>
</svg>
