<svg width="44" height="42" viewBox="0 0 44 42" fill="none" xmlns="http://www.w3.org/2000/svg">
<path d="M16 0H14V2H16V0Z" fill="#010101"/>
<path d="M14 0H12V2H14V0Z" fill="#010101"/>
<path d="M12 0H10V2H12V0Z" fill="#010101"/>
<path d="M18 0H16V2H18V0Z" fill="#010101"/>
<path d="M20 0H18V2H20V0Z" fill="black"/>
<path d="M22 0H20V2H22V0Z" fill="black"/>
<path d="M8 2H6V4H8V2Z" fill="#010101"/>
<path d="M10 0H8V2H10V0Z" fill="#010101"/>
<path d="M24 2H22V4H24V2Z" fill="black"/>
<path d="M26 4H24V6H26V4Z" fill="black"/>
<path d="M28 4H26V6H28V4Z" fill="#202020"/>
<path d="M6 2H4V4H6V2Z" fill="black"/>
<path d="M30 6H28V8H30V6Z" fill="#010101"/>
<path d="M16 6H14V8H16V6Z" fill="black"/>
<path d="M18 6H16V8H18V6Z" fill="black"/>
<path d="M30 8H28V10H30V8Z" fill="#010101"/>
<path d="M2 8H0V10H2V8Z" fill="black"/>
<path d="M2 6H0V8H2V6Z" fill="black"/>
<path d="M4 4H2V6H4V4Z" fill="black"/>
<path d="M30 10H28V12H30V10Z" fill="black"/>
<path d="M2 10H0V12H2V10Z" fill="black"/>
<path d="M14 8H12V10H14V8Z" fill="black"/>
<path d="M16 8H14V10H16V8Z" fill="#94C8CB"/>
<path d="M18 8H16V10H18V8Z" fill="#94C8CB"/>
<path d="M16 10H14V12H16V10Z" fill="black"/>
<path d="M18 10H16V12H18V10Z" fill="black"/>
<path d="M20 8H18V10H20V8Z" fill="black"/>
<path d="M30 11H28V13H30V11Z" fill="black"/>
<path d="M32 9H30V11H32V9Z" fill="#010101"/>
<path d="M34 11H32V13H34V11Z" fill="#010101"/>
<path d="M2 12H0V14H2V12Z" fill="black"/>
<path d="M4 12H2V14H4V12Z" fill="black"/>
<path d="M4 14H2V16H4V14Z" fill="black"/>
<path d="M4 16H2V18H4V16Z" fill="#D0FCFF"/>
<path d="M4 6H2V8H4V6Z" fill="#D0FCFF"/>
<path d="M6 6H4V8H6V6Z" fill="#D0FCFF"/>
<path d="M6 4H4V6H6V4Z" fill="#D0FCFF"/>
<path d="M14 4H12V6H14V4Z" fill="#D0FCFF"/>
<path d="M14 6H12V8H14V6Z" fill="#D0FCFF"/>
<path d="M14 10H12V12H14V10Z" fill="#D0FCFF"/>
<path d="M14 12H12V14H14V12Z" fill="#D0FCFF"/>
<path d="M18 12H16V14H18V12Z" fill="#D0FCFF"/>
<path d="M14 2H12V4H14V2Z" fill="#D0FCFF"/>
<path d="M8 6H6V8H8V6Z" fill="#D0FCFF"/>
<path d="M8 4H6V6H8V4Z" fill="#D0FCFF"/>
<path d="M16 4H14V6H16V4Z" fill="#D0FCFF"/>
<path d="M16 2H14V4H16V2Z" fill="#D0FCFF"/>
<path d="M10 6H8V8H10V6Z" fill="#D0FCFF"/>
<path d="M10 4H8V6H10V4Z" fill="#D0FCFF"/>
<path d="M10 2H8V4H10V2Z" fill="#D0FCFF"/>
<path d="M18 4H16V6H18V4Z" fill="#D0FCFF"/>
<path d="M18 2H16V4H18V2Z" fill="#D0FCFF"/>
<path d="M22 4H20V6H22V4Z" fill="#D0FCFF"/>
<path d="M22 2H20V4H22V2Z" fill="#D0FCFF"/>
<path d="M12 6H10V8H12V6Z" fill="#D0FCFF"/>
<path d="M12 4H10V6H12V4Z" fill="#D0FCFF"/>
<path d="M12 2H10V4H12V2Z" fill="#D0FCFF"/>
<path d="M20 4H18V6H20V4Z" fill="#D0FCFF"/>
<path d="M20 6H18V8H20V6Z" fill="#D0FCFF"/>
<path d="M20 10H18V12H20V10Z" fill="#D0FCFF"/>
<path d="M20 12H18V14H20V12Z" fill="#D0FCFF"/>
<path d="M20 14H18V16H20V14Z" fill="#D0FCFF"/>
<path d="M20 16H18V18H20V16Z" fill="#D0FCFF"/>
<path d="M16 14H14V16H16V14Z" fill="#D0FCFF"/>
<path d="M16 16H14V18H16V16Z" fill="#D0FCFF"/>
<path d="M12 14H10V16H12V14Z" fill="#D0FCFF"/>
<path d="M12 16H10V18H12V16Z" fill="#D0FCFF"/>
<path d="M10 14H8V16H10V14Z" fill="#D0FCFF"/>
<path d="M20 2H18V4H20V2Z" fill="#D0FCFF"/>
<path d="M24 4H22V6H24V4Z" fill="#D0FCFF"/>
<path d="M22 6H20V8H22V6Z" fill="#D0FCFF"/>
<path d="M24 6H22V8H24V6Z" fill="#D0FCFF"/>
<path d="M26 6H24V8H26V6Z" fill="#D0FCFF"/>
<path d="M28 6H26V8H28V6Z" fill="#D0FCFF"/>
<path d="M6 16H4V18H6V16Z" fill="#D0FCFF"/>
<path d="M8 16H6V18H8V16Z" fill="#D0FCFF"/>
<path d="M4 18H2V20H4V18Z" fill="#D0FCFF"/>
<path d="M4 8H2V10H4V8Z" fill="#D0FCFF"/>
<path d="M6 8H4V10H6V8Z" fill="#D0FCFF"/>
<path d="M8 8H6V10H8V8Z" fill="#D0FCFF"/>
<path d="M10 8H8V10H10V8Z" fill="#D0FCFF"/>
<path d="M12 8H10V10H12V8Z" fill="#D0FCFF"/>
<path d="M22 8H20V10H22V8Z" fill="#D0FCFF"/>
<path d="M24 8H22V10H24V8Z" fill="#D0FCFF"/>
<path d="M26 8H24V10H26V8Z" fill="#D0FCFF"/>
<path d="M28 8H26V10H28V8Z" fill="#D0FCFF"/>
<path d="M6 18H4V20H6V18Z" fill="#D0FCFF"/>
<path d="M8 18H6V20H8V18Z" fill="#D0FCFF"/>
<path d="M4 20H2V22H4V20Z" fill="#D0FCFF"/>
<path d="M4 10H2V12H4V10Z" fill="#D0FCFF"/>
<path d="M6 10H4V12H6V10Z" fill="#D0FCFF"/>
<path d="M6 12H4V14H6V12Z" fill="#D0FCFF"/>
<path d="M8 10H6V12H8V10Z" fill="#D0FCFF"/>
<path d="M8 12H6V14H8V12Z" fill="#D0FCFF"/>
<path d="M10 10H8V12H10V10Z" fill="#D0FCFF"/>
<path d="M10 12H8V14H10V12Z" fill="#D0FCFF"/>
<path d="M12 10H10V12H12V10Z" fill="#D0FCFF"/>
<path d="M12 12H10V14H12V12Z" fill="#D0FCFF"/>
<path d="M16 12H14V14H16V12Z" fill="#D0FCFF"/>
<path d="M22 10H20V12H22V10Z" fill="#D0FCFF"/>
<path d="M22 12H20V14H22V12Z" fill="#D0FCFF"/>
<path d="M22 14H20V16H22V14Z" fill="#D0FCFF"/>
<path d="M22 16H20V18H22V16Z" fill="#D0FCFF"/>
<path d="M18 14H16V16H18V14Z" fill="#D0FCFF"/>
<path d="M18 16H16V18H18V16Z" fill="#D0FCFF"/>
<path d="M14 14H12V16H14V14Z" fill="#D0FCFF"/>
<path d="M14 16H12V18H14V16Z" fill="#D0FCFF"/>
<path d="M24 10H22V12H24V10Z" fill="#D0FCFF"/>
<path d="M24 12H22V14H24V12Z" fill="#D0FCFF"/>
<path d="M24 14H22V16H24V14Z" fill="#D0FCFF"/>
<path d="M26 10H24V12H26V10Z" fill="#D0FCFF"/>
<path d="M26 12H24V14H26V12Z" fill="#D0FCFF"/>
<path d="M28 10H26V12H28V10Z" fill="#D0FCFF"/>
<path d="M10 20H8V22H10V20Z" fill="#D0FCFF"/>
<path d="M10 18H8V20H10V18Z" fill="#D0FCFF"/>
<path d="M16 20H14V22H16V20Z" fill="#D0FCFF"/>
<path d="M22 20H20V22H22V20Z" fill="#D0FCFF"/>
<path d="M6 20H4V22H6V20Z" fill="#D0FCFF"/>
<path d="M12 20H10V22H12V20Z" fill="#D0FCFF"/>
<path d="M18 20H16V22H18V20Z" fill="#D0FCFF"/>
<path d="M24 20H22V22H24V20Z" fill="#D0FCFF"/>
<path d="M8 20H6V22H8V20Z" fill="#D0FCFF"/>
<path d="M14 20H12V22H14V20Z" fill="#D0FCFF"/>
<path d="M20 20H18V22H20V20Z" fill="#D0FCFF"/>
<path d="M26 20H24V22H26V20Z" fill="#D0FCFF"/>
<path d="M28 20H26V22H28V20Z" fill="#D0FCFF"/>
<path d="M32 17H30V19H32V17Z" fill="#D0FCFF"/>
<path d="M34 17H32V19H34V17Z" fill="#D0FCFF"/>
<path d="M36 17H34V19H36V17Z" fill="#D0FCFF"/>
<path d="M38 17H36V19H38V17Z" fill="#D0FCFF"/>
<path d="M40 17H38V19H40V17Z" fill="#D0FCFF"/>
<path d="M28 16H26V18H28V16Z" fill="#D0FCFF"/>
<path d="M32 13H30V15H32V13Z" fill="#D0FCFF"/>
<path d="M34 13H32V15H34V13Z" fill="#D0FCFF"/>
<path d="M26 16H24V18H26V16Z" fill="#D0FCFF"/>
<path d="M28 14H26V16H28V14Z" fill="#D0FCFF"/>
<path d="M32 11H30V13H32V11Z" fill="#D0FCFF"/>
<path d="M4 22H2V24H4V22Z" fill="#D0FCFF"/>
<path d="M10 22H8V24H10V22Z" fill="#94C8CB"/>
<path d="M16 22H14V24H16V22Z" fill="#D0FCFF"/>
<path d="M22 22H20V24H22V22Z" fill="#D0FCFF"/>
<path d="M6 22H4V24H6V22Z" fill="#D0FCFF"/>
<path d="M12 22H10V24H12V22Z" fill="#D0FCFF"/>
<path d="M18 22H16V24H18V22Z" fill="#D0FCFF"/>
<path d="M24 22H22V24H24V22Z" fill="#D0FCFF"/>
<path d="M8 22H6V24H8V22Z" fill="#D0FCFF"/>
<path d="M14 22H12V24H14V22Z" fill="#D0FCFF"/>
<path d="M20 22H18V24H20V22Z" fill="#D0FCFF"/>
<path d="M26 22H24V24H26V22Z" fill="#D0FCFF"/>
<path d="M28 18H26V20H28V18Z" fill="#D0FCFF"/>
<path d="M32 15H30V17H32V15Z" fill="#D0FCFF"/>
<path d="M34 15H32V17H34V15Z" fill="#D0FCFF"/>
<path d="M36 15H34V17H36V15Z" fill="#D0FCFF"/>
<path d="M28 22H26V24H28V22Z" fill="#D0FCFF"/>
<path d="M32 19H30V21H32V19Z" fill="#D0FCFF"/>
<path d="M34 19H32V21H34V19Z" fill="#D0FCFF"/>
<path d="M36 19H34V21H36V19Z" fill="#D0FCFF"/>
<path d="M38 19H36V21H38V19Z" fill="#D0FCFF"/>
<path d="M40 19H38V21H40V19Z" fill="#D0FCFF"/>
<path d="M42 19H40V21H42V19Z" fill="#D0FCFF"/>
<path d="M42 29H40V31H42V29Z" fill="#D0FCFF"/>
<path d="M42 27H40V29H42V27Z" fill="#D0FCFF"/>
<path d="M26 18H24V20H26V18Z" fill="#D0FCFF"/>
<path d="M24 18H22V20H24V18Z" fill="#D0FCFF"/>
<path d="M4 24H2V26H4V24Z" fill="#D0FCFF"/>
<path d="M6 24H4V26H6V24Z" fill="#D0FCFF"/>
<path d="M10 24H8V26H10V24Z" fill="#D0FCFF"/>
<path d="M14 24H12V26H14V24Z" fill="#D0FCFF"/>
<path d="M18 24H16V26H18V24Z" fill="#D0FCFF"/>
<path d="M22 24H20V26H22V24Z" fill="#D0FCFF"/>
<path d="M26 24H24V26H26V24Z" fill="#D0FCFF"/>
<path d="M8 24H6V26H8V24Z" fill="#94C8CB"/>
<path d="M12 24H10V26H12V24Z" fill="#94C8CB"/>
<path d="M16 24H14V26H16V24Z" fill="#D0FCFF"/>
<path d="M20 24H18V26H20V24Z" fill="#D0FCFF"/>
<path d="M24 24H22V26H24V24Z" fill="#D0FCFF"/>
<path d="M28 24H26V26H28V24Z" fill="#D0FCFF"/>
<path d="M4 26H2V28H4V26Z" fill="#D0FCFF"/>
<path d="M6 26H4V28H6V26Z" fill="#D0FCFF"/>
<path d="M10 26H8V28H10V26Z" fill="#94C8CB"/>
<path d="M14 26H12V28H14V26Z" fill="#D0FCFF"/>
<path d="M18 26H16V28H18V26Z" fill="#D0FCFF"/>
<path d="M22 26H20V28H22V26Z" fill="#D0FCFF"/>
<path d="M26 26H24V28H26V26Z" fill="#D0FCFF"/>
<path d="M8 26H6V28H8V26Z" fill="#D0FCFF"/>
<path d="M12 26H10V28H12V26Z" fill="#D0FCFF"/>
<path d="M16 26H14V28H16V26Z" fill="#D0FCFF"/>
<path d="M20 26H18V28H20V26Z" fill="#D0FCFF"/>
<path d="M24 26H22V28H24V26Z" fill="#D0FCFF"/>
<path d="M28 26H26V28H28V26Z" fill="#D0FCFF"/>
<path d="M32 21H30V23H32V21Z" fill="#D0FCFF"/>
<path d="M34 21H32V23H34V21Z" fill="#D0FCFF"/>
<path d="M36 21H34V23H36V21Z" fill="#D0FCFF"/>
<path d="M38 21H36V23H38V21Z" fill="#94C8CB"/>
<path d="M40 21H38V23H40V21Z" fill="#D0FCFF"/>
<path d="M42 21H40V23H42V21Z" fill="#D0FCFF"/>
<path d="M42 31H40V33H42V31Z" fill="#D0FCFF"/>
<path d="M4 28H2V30H4V28Z" fill="#D0FCFF"/>
<path d="M6 28H4V30H6V28Z" fill="#D0FCFF"/>
<path d="M10 28H8V30H10V28Z" fill="#D0FCFF"/>
<path d="M14 28H12V30H14V28Z" fill="#D0FCFF"/>
<path d="M18 28H16V30H18V28Z" fill="#D0FCFF"/>
<path d="M22 28H20V30H22V28Z" fill="#94C8CB"/>
<path d="M26 28H24V30H26V28Z" fill="#D0FCFF"/>
<path d="M8 28H6V30H8V28Z" fill="#D0FCFF"/>
<path d="M12 28H10V30H12V28Z" fill="#D0FCFF"/>
<path d="M16 28H14V30H16V28Z" fill="#D0FCFF"/>
<path d="M20 28H18V30H20V28Z" fill="#D0FCFF"/>
<path d="M24 28H22V30H24V28Z" fill="#D0FCFF"/>
<path d="M28 28H26V30H28V28Z" fill="#D0FCFF"/>
<path d="M32 23H30V25H32V23Z" fill="#D0FCFF"/>
<path d="M34 23H32V25H34V23Z" fill="#D0FCFF"/>
<path d="M36 23H34V25H36V23Z" fill="#94C8CB"/>
<path d="M38 23H36V25H38V23Z" fill="#D0FCFF"/>
<path d="M40 23H38V25H40V23Z" fill="#94C8CB"/>
<path d="M42 23H40V25H42V23Z" fill="#D0FCFF"/>
<path d="M42 33H40V35H42V33Z" fill="#D0FCFF"/>
<path d="M4 30H2V32H4V30Z" fill="#D0FCFF"/>
<path d="M6 30H4V32H6V30Z" fill="#D0FCFF"/>
<path d="M10 30H8V32H10V30Z" fill="#D0FCFF"/>
<path d="M14 30H12V32H14V30Z" fill="#D0FCFF"/>
<path d="M18 30H16V32H18V30Z" fill="#D0FCFF"/>
<path d="M22 30H20V32H22V30Z" fill="#D0FCFF"/>
<path d="M26 30H24V32H26V30Z" fill="#D0FCFF"/>
<path d="M8 30H6V32H8V30Z" fill="#D0FCFF"/>
<path d="M12 30H10V32H12V30Z" fill="#D0FCFF"/>
<path d="M16 30H14V32H16V30Z" fill="#D0FCFF"/>
<path d="M20 30H18V32H20V30Z" fill="#94C8CB"/>
<path d="M24 30H22V32H24V30Z" fill="#94C8CB"/>
<path d="M28 30H26V32H28V30Z" fill="#D0FCFF"/>
<path d="M32 25H30V27H32V25Z" fill="#D0FCFF"/>
<path d="M34 25H32V27H34V25Z" fill="#D0FCFF"/>
<path d="M36 25H34V27H36V25Z" fill="#D0FCFF"/>
<path d="M38 25H36V27H38V25Z" fill="#94C8CB"/>
<path d="M40 25H38V27H40V25Z" fill="#D0FCFF"/>
<path d="M42 25H40V27H42V25Z" fill="#D0FCFF"/>
<path d="M42 35H40V37H42V35Z" fill="#D0FCFF"/>
<path d="M32 27H30V29H32V27Z" fill="#D0FCFF"/>
<path d="M34 27H32V29H34V27Z" fill="#D0FCFF"/>
<path d="M34 29H32V31H34V29Z" fill="#D0FCFF"/>
<path d="M36 27H34V29H36V27Z" fill="#D0FCFF"/>
<path d="M36 29H34V31H36V29Z" fill="#D0FCFF"/>
<path d="M36 31H34V33H36V31Z" fill="#D0FCFF"/>
<path d="M38 27H36V29H38V27Z" fill="#D0FCFF"/>
<path d="M38 29H36V31H38V29Z" fill="#D0FCFF"/>
<path d="M38 31H36V33H38V31Z" fill="#D0FCFF"/>
<path d="M38 33H36V35H38V33Z" fill="#D0FCFF"/>
<path d="M38 35H36V37H38V35Z" fill="#D0FCFF"/>
<path d="M40 27H38V29H40V27Z" fill="#D0FCFF"/>
<path d="M40 29H38V31H40V29Z" fill="#D0FCFF"/>
<path d="M40 31H38V33H40V31Z" fill="#D0FCFF"/>
<path d="M40 33H38V35H40V33Z" fill="#D0FCFF"/>
<path d="M40 35H38V37H40V35Z" fill="#D0FCFF"/>
<path d="M42 37H40V39H42V37Z" fill="#D0FCFF"/>
<path d="M4 32H2V34H4V32Z" fill="#D0FCFF"/>
<path d="M6 32H4V34H6V32Z" fill="#D0FCFF"/>
<path d="M10 32H8V34H10V32Z" fill="#D0FCFF"/>
<path d="M14 32H12V34H14V32Z" fill="#D0FCFF"/>
<path d="M18 32H16V34H18V32Z" fill="#D0FCFF"/>
<path d="M22 32H20V34H22V32Z" fill="#94C8CB"/>
<path d="M26 32H24V34H26V32Z" fill="#D0FCFF"/>
<path d="M8 32H6V34H8V32Z" fill="#D0FCFF"/>
<path d="M12 32H10V34H12V32Z" fill="#D0FCFF"/>
<path d="M16 32H14V34H16V32Z" fill="#D0FCFF"/>
<path d="M20 32H18V34H20V32Z" fill="#D0FCFF"/>
<path d="M24 32H22V34H24V32Z" fill="#D0FCFF"/>
<path d="M28 32H26V34H28V32Z" fill="#D0FCFF"/>
<path d="M4 34H2V36H4V34Z" fill="#D0FCFF"/>
<path d="M6 36H4V38H6V36Z" fill="#D0FCFF"/>
<path d="M10 36H8V38H10V36Z" fill="#D0FCFF"/>
<path d="M14 36H12V38H14V36Z" fill="#D0FCFF"/>
<path d="M14 38H12V40H14V38Z" fill="#D0FCFF"/>
<path d="M18 36H16V38H18V36Z" fill="#D0FCFF"/>
<path d="M18 38H16V40H18V38Z" fill="#D0FCFF"/>
<path d="M22 36H20V38H22V36Z" fill="#D0FCFF"/>
<path d="M26 36H24V38H26V36Z" fill="#D0FCFF"/>
<path d="M8 36H6V38H8V36Z" fill="#D0FCFF"/>
<path d="M12 36H10V38H12V36Z" fill="#D0FCFF"/>
<path d="M12 38H10V40H12V38Z" fill="#D0FCFF"/>
<path d="M16 36H14V38H16V36Z" fill="#D0FCFF"/>
<path d="M16 38H14V40H16V38Z" fill="#D0FCFF"/>
<path d="M20 36H18V38H20V36Z" fill="#D0FCFF"/>
<path d="M20 38H18V40H20V38Z" fill="#D0FCFF"/>
<path d="M24 36H22V38H24V36Z" fill="#D0FCFF"/>
<path d="M6 34H4V36H6V34Z" fill="#D0FCFF"/>
<path d="M10 34H8V36H10V34Z" fill="#D0FCFF"/>
<path d="M14 34H12V36H14V34Z" fill="#D0FCFF"/>
<path d="M18 34H16V36H18V34Z" fill="#D0FCFF"/>
<path d="M22 34H20V36H22V34Z" fill="#D0FCFF"/>
<path d="M26 34H24V36H26V34Z" fill="#D0FCFF"/>
<path d="M8 34H6V36H8V34Z" fill="#D0FCFF"/>
<path d="M12 34H10V36H12V34Z" fill="#D0FCFF"/>
<path d="M16 34H14V36H16V34Z" fill="#D0FCFF"/>
<path d="M20 34H18V36H20V34Z" fill="#D0FCFF"/>
<path d="M24 34H22V36H24V34Z" fill="#D0FCFF"/>
<path d="M28 34H26V36H28V34Z" fill="#D0FCFF"/>
<path d="M30 13H28V15H30V13Z" fill="black"/>
<path d="M36 13H34V15H36V13Z" fill="black"/>
<path d="M2 14H0V16H2V14Z" fill="black"/>
<path d="M6 14H4V16H6V14Z" fill="#676767"/>
<path d="M8 14H6V16H8V14Z" fill="black"/>
<path d="M10 16H8V18H10V16Z" fill="black"/>
<path d="M24 16H22V18H24V16Z" fill="black"/>
<path d="M26 14H24V16H26V14Z" fill="black"/>
<path d="M28 12H26V14H28V12Z" fill="black"/>
<path d="M30 15H28V17H30V15Z" fill="black"/>
<path d="M38 15H36V17H38V15Z" fill="black"/>
<path d="M40 15H38V17H40V15Z" fill="black"/>
<path d="M2 16H0V18H2V16Z" fill="black"/>
<path d="M12 18H10V20H12V18Z" fill="#010101"/>
<path d="M14 18H12V20H14V18Z" fill="black"/>
<path d="M16 18H14V20H16V18Z" fill="black"/>
<path d="M18 18H16V20H18V18Z" fill="black"/>
<path d="M20 18H18V20H20V18Z" fill="#010101"/>
<path d="M22 18H20V20H22V18Z" fill="#838383"/>
<path d="M30 17H28V19H30V17Z" fill="black"/>
<path d="M2 17H0V20H2V17Z" fill="black"/>
<path d="M30 18H28V21H30V18Z" fill="black"/>
<path d="M42 17H40V19H42V17Z" fill="#010101"/>
<path d="M2 20H0V21H2V20Z" fill="black"/>
<path d="M30 21H28V22H30V21Z" fill="black"/>
<path d="M44 19H42V21H44V19Z" fill="black"/>
<path d="M2 21H0V23H2V21Z" fill="black"/>
<path d="M30 22H28V24H30V22Z" fill="black"/>
<path d="M44 21H42V23H44V21Z" fill="black"/>
<path d="M2 23H0V25H2V23Z" fill="black"/>
<path d="M30 24H28V26H30V24Z" fill="black"/>
<path d="M44 23H42V25H44V23Z" fill="black"/>
<path d="M2 25H0V27H2V25Z" fill="black"/>
<path d="M30 26H28V28H30V26Z" fill="black"/>
<path d="M44 25H42V27H44V25Z" fill="black"/>
<path d="M2 27H0V29H2V27Z" fill="black"/>
<path d="M30 28H28V30H30V28Z" fill="black"/>
<path d="M2 29H0V31H2V29Z" fill="black"/>
<path d="M30 30H28V32H30V30Z" fill="black"/>
<path d="M44 27H42V29H44V27Z" fill="black"/>
<path d="M2 30H0V32H2V30Z" fill="black"/>
<path d="M2 32H0V34H2V32Z" fill="black"/>
<path d="M2 34H0V36H2V34Z" fill="black"/>
<path d="M32 29H30V31H32V29Z" fill="black"/>
<path d="M44 31H42V33H44V31Z" fill="black"/>
<path d="M44 29H42V31H44V29Z" fill="black"/>
<path d="M34 31H32V33H34V31Z" fill="black"/>
<path d="M44 33H42V35H44V33Z" fill="#010101"/>
<path d="M4 36H2V38H4V36Z" fill="#303030"/>
<path d="M6 38H4V40H6V38Z" fill="black"/>
<path d="M30 34H28V36H30V34Z" fill="black"/>
<path d="M30 32H28V34H30V32Z" fill="black"/>
<path d="M36 33H34V35H36V33Z" fill="black"/>
<path d="M36 35H34V37H36V35Z" fill="black"/>
<path d="M44 35H42V37H44V35Z" fill="black"/>
<path d="M8 38H6V40H8V38Z" fill="black"/>
<path d="M10 38H8V40H10V38Z" fill="black"/>
<path d="M28 36H26V38H28V36Z" fill="#010101"/>
<path d="M26 38H24V40H26V38Z" fill="#030303"/>
<path d="M24 38H22V40H24V38Z" fill="#030303"/>
<path d="M22 38H20V40H22V38Z" fill="#030303"/>
<path d="M12 40H10V42H12V40Z" fill="black"/>
<path d="M14 40H12V42H14V40Z" fill="#010101"/>
<path d="M16 40H14V42H16V40Z" fill="#010101"/>
<path d="M18 40H16V42H18V40Z" fill="black"/>
<path d="M20 40H18V42H20V40Z" fill="black"/>
<path d="M38 37H36V39H38V37Z" fill="black"/>
<path d="M44 37H42V39H44V37Z" fill="black"/>
<path d="M40 37H38V39H40V37Z" fill="black"/>
<path d="M42 39H40V41H42V39Z" fill="black"/>
</svg>
